<svg width="20" height="16" viewBox="0 0 20 16" fill="none" xmlns="http://www.w3.org/2000/svg">
<path fill-rule="evenodd" clip-rule="evenodd" d="M0.5625 8C0.5625 7.72386 0.786358 7.5 1.0625 7.5H18.9375C19.2136 7.5 19.4375 7.72386 19.4375 8C19.4375 8.27614 19.2136 8.5 18.9375 8.5H1.0625C0.786358 8.5 0.5625 8.27614 0.5625 8Z" fill="white"/>
<path fill-rule="evenodd" clip-rule="evenodd" d="M11.2714 0.333947C11.4667 0.138684 11.7833 0.138684 11.9786 0.333947L19.2911 7.64645C19.4863 7.84171 19.4863 8.15829 19.2911 8.35355L11.9786 15.6661C11.7833 15.8613 11.4667 15.8613 11.2714 15.6661C11.0762 15.4708 11.0762 15.1542 11.2714 14.9589L18.2304 8L11.2714 1.04105C11.0762 0.845791 11.0762 0.529209 11.2714 0.333947Z" fill="white"/>
</svg>
