<svg width="24" height="24" viewBox="0 0 24 24" fill="none" xmlns="http://www.w3.org/2000/svg">
<g opacity="0.18">
<path d="M17 16C19.2091 16 21 14.2091 21 12C21 9.79086 19.2091 8 17 8C14.7909 8 13 9.79086 13 12C13 14.2091 14.7909 16 17 16Z" fill="#010101"/>
<path fill-rule="evenodd" clip-rule="evenodd" d="M17 8.5C15.067 8.5 13.5 10.067 13.5 12C13.5 13.933 15.067 15.5 17 15.5C18.933 15.5 20.5 13.933 20.5 12C20.5 10.067 18.933 8.5 17 8.5ZM12.5 12C12.5 9.51472 14.5147 7.5 17 7.5C19.4853 7.5 21.5 9.51472 21.5 12C21.5 14.4853 19.4853 16.5 17 16.5C14.5147 16.5 12.5 14.4853 12.5 12Z" fill="white"/>
<path d="M14 11C16.2091 11 18 9.20914 18 7C18 4.79086 16.2091 3 14 3C11.7909 3 10 4.79086 10 7C10 9.20914 11.7909 11 14 11Z" fill="#010101"/>
<path fill-rule="evenodd" clip-rule="evenodd" d="M14 3.5C12.067 3.5 10.5 5.067 10.5 7C10.5 8.933 12.067 10.5 14 10.5C15.933 10.5 17.5 8.933 17.5 7C17.5 5.067 15.933 3.5 14 3.5ZM9.5 7C9.5 4.51472 11.5147 2.5 14 2.5C16.4853 2.5 18.5 4.51472 18.5 7C18.5 9.48528 16.4853 11.5 14 11.5C11.5147 11.5 9.5 9.48528 9.5 7Z" fill="white"/>
<path d="M10 11C12.2091 11 14 9.20914 14 7C14 4.79086 12.2091 3 10 3C7.79086 3 6 4.79086 6 7C6 9.20914 7.79086 11 10 11Z" fill="#010101"/>
<path fill-rule="evenodd" clip-rule="evenodd" d="M10 3.5C8.067 3.5 6.5 5.067 6.5 7C6.5 8.933 8.067 10.5 10 10.5C11.933 10.5 13.5 8.933 13.5 7C13.5 5.067 11.933 3.5 10 3.5ZM5.5 7C5.5 4.51472 7.51472 2.5 10 2.5C12.4853 2.5 14.5 4.51472 14.5 7C14.5 9.48528 12.4853 11.5 10 11.5C7.51472 11.5 5.5 9.48528 5.5 7Z" fill="white"/>
<path d="M7 16C9.20914 16 11 14.2091 11 12C11 9.79086 9.20914 8 7 8C4.79086 8 3 9.79086 3 12C3 14.2091 4.79086 16 7 16Z" fill="#010101"/>
<path fill-rule="evenodd" clip-rule="evenodd" d="M7 8.5C5.067 8.5 3.5 10.067 3.5 12C3.5 13.933 5.067 15.5 7 15.5C8.933 15.5 10.5 13.933 10.5 12C10.5 10.067 8.933 8.5 7 8.5ZM2.5 12C2.5 9.51472 4.51472 7.5 7 7.5C9.48528 7.5 11.5 9.51472 11.5 12C11.5 14.4853 9.48528 16.5 7 16.5C4.51472 16.5 2.5 14.4853 2.5 12Z" fill="white"/>
<path d="M10 21C12.2091 21 14 19.2091 14 17C14 14.7909 12.2091 13 10 13C7.79086 13 6 14.7909 6 17C6 19.2091 7.79086 21 10 21Z" fill="#010101"/>
<path fill-rule="evenodd" clip-rule="evenodd" d="M10 13.5C8.067 13.5 6.5 15.067 6.5 17C6.5 18.933 8.067 20.5 10 20.5C11.933 20.5 13.5 18.933 13.5 17C13.5 15.067 11.933 13.5 10 13.5ZM5.5 17C5.5 14.5147 7.51472 12.5 10 12.5C12.4853 12.5 14.5 14.5147 14.5 17C14.5 19.4853 12.4853 21.5 10 21.5C7.51472 21.5 5.5 19.4853 5.5 17Z" fill="white"/>
<path d="M14 21C16.2091 21 18 19.2091 18 17C18 14.7909 16.2091 13 14 13C11.7909 13 10 14.7909 10 17C10 19.2091 11.7909 21 14 21Z" fill="#010101"/>
<path fill-rule="evenodd" clip-rule="evenodd" d="M14 13.5C12.067 13.5 10.5 15.067 10.5 17C10.5 18.933 12.067 20.5 14 20.5C15.933 20.5 17.5 18.933 17.5 17C17.5 15.067 15.933 13.5 14 13.5ZM9.5 17C9.5 14.5147 11.5147 12.5 14 12.5C16.4853 12.5 18.5 14.5147 18.5 17C18.5 19.4853 16.4853 21.5 14 21.5C11.5147 21.5 9.5 19.4853 9.5 17Z" fill="white"/>
<mask id="mask0" mask-type="alpha" maskUnits="userSpaceOnUse" x="10" y="12" width="9" height="9">
<path d="M14.5 21C16.9853 21 19 18.9853 19 16.5C19 14.0147 16.9853 12 14.5 12C12.0147 12 10 14.0147 10 16.5C10 18.9853 12.0147 21 14.5 21Z" fill="#010101"/>
</mask>
<g mask="url(#mask0)">
</g>
<mask id="mask1" mask-type="alpha" maskUnits="userSpaceOnUse" x="9" y="11" width="11" height="11">
<path fill-rule="evenodd" clip-rule="evenodd" d="M14.5 12.5C12.2909 12.5 10.5 14.2909 10.5 16.5C10.5 18.7091 12.2909 20.5 14.5 20.5C16.7091 20.5 18.5 18.7091 18.5 16.5C18.5 14.2909 16.7091 12.5 14.5 12.5ZM9.5 16.5C9.5 13.7386 11.7386 11.5 14.5 11.5C17.2614 11.5 19.5 13.7386 19.5 16.5C19.5 19.2614 17.2614 21.5 14.5 21.5C11.7386 21.5 9.5 19.2614 9.5 16.5Z" fill="white"/>
</mask>
<g mask="url(#mask1)">
<path d="M17 16C19.2091 16 21 14.2091 21 12C21 9.79086 19.2091 8 17 8C14.7909 8 13 9.79086 13 12C13 14.2091 14.7909 16 17 16Z" fill="#010101"/>
<path fill-rule="evenodd" clip-rule="evenodd" d="M17 8.5C15.067 8.5 13.5 10.067 13.5 12C13.5 13.933 15.067 15.5 17 15.5C18.933 15.5 20.5 13.933 20.5 12C20.5 10.067 18.933 8.5 17 8.5ZM12.5 12C12.5 9.51472 14.5147 7.5 17 7.5C19.4853 7.5 21.5 9.51472 21.5 12C21.5 14.4853 19.4853 16.5 17 16.5C14.5147 16.5 12.5 14.4853 12.5 12Z" fill="white"/>
</g>
<path d="M12 16C14.2091 16 16 14.2091 16 12C16 9.79086 14.2091 8 12 8C9.79086 8 8 9.79086 8 12C8 14.2091 9.79086 16 12 16Z" fill="#010101"/>
<path fill-rule="evenodd" clip-rule="evenodd" d="M12 8.5C10.067 8.5 8.5 10.067 8.5 12C8.5 13.933 10.067 15.5 12 15.5C13.933 15.5 15.5 13.933 15.5 12C15.5 10.067 13.933 8.5 12 8.5ZM7.5 12C7.5 9.51472 9.51472 7.5 12 7.5C14.4853 7.5 16.5 9.51472 16.5 12C16.5 14.4853 14.4853 16.5 12 16.5C9.51472 16.5 7.5 14.4853 7.5 12Z" fill="white"/>
</g>
</svg>
