<svg width="440" height="440" viewBox="0 0 440 440" fill="none" xmlns="http://www.w3.org/2000/svg">
<mask id="mask0" mask-type="alpha" maskUnits="userSpaceOnUse" x="0" y="0" width="440" height="440">
<path d="M440 220C440 341.503 341.503 440 220 440C98.4974 440 0 341.503 0 220C0 98.4974 98.4974 0 220 0C341.503 0 440 98.4974 440 220Z" fill="black"/>
</mask>
<g mask="url(#mask0)">
<path fill-rule="evenodd" clip-rule="evenodd" d="M220 219C280.199 219 329 170.199 329 110C329 49.801 280.199 1 220 1C159.801 1 111 49.801 111 110C111 170.199 159.801 219 220 219ZM220 220C280.751 220 330 170.751 330 110C330 49.2487 280.751 0 220 0C159.249 0 110 49.2487 110 110C110 170.751 159.249 220 220 220Z" fill="white"/>
<path fill-rule="evenodd" clip-rule="evenodd" d="M219.293 219.293C261.86 176.726 261.86 107.711 219.293 65.1436C176.726 22.5765 107.711 22.5765 65.1436 65.1436C22.5765 107.711 22.5765 176.726 65.1436 219.293C107.711 261.86 176.726 261.86 219.293 219.293ZM220 220C262.958 177.042 262.958 107.394 220 64.4365C177.042 21.4788 107.394 21.4788 64.4365 64.4365C21.4789 107.394 21.4789 177.042 64.4365 220C107.394 262.958 177.042 262.958 220 220Z" fill="white"/>
<path fill-rule="evenodd" clip-rule="evenodd" d="M219 220C219 159.801 170.199 111 110 111C49.801 111 1 159.801 1 220C1 280.199 49.801 329 110 329C170.199 329 219 280.199 219 220ZM220 220C220 159.249 170.751 110 110 110C49.2487 110 0 159.249 0 220C0 280.751 49.2487 330 110 330C170.751 330 220 280.751 220 220Z" fill="white"/>
<path fill-rule="evenodd" clip-rule="evenodd" d="M219.293 220.707C176.726 178.14 107.711 178.14 65.1436 220.707C22.5765 263.274 22.5765 332.289 65.1436 374.856C107.711 417.424 176.726 417.424 219.293 374.856C261.86 332.289 261.86 263.274 219.293 220.707ZM220 220C177.042 177.042 107.394 177.042 64.4365 220C21.4788 262.958 21.4788 332.606 64.4365 375.563C107.394 418.521 177.042 418.521 220 375.563C262.958 332.606 262.958 262.958 220 220Z" fill="white"/>
<path fill-rule="evenodd" clip-rule="evenodd" d="M220 221C159.801 221 111 269.801 111 330C111 390.199 159.801 439 220 439C280.199 439 329 390.199 329 330C329 269.801 280.199 221 220 221ZM220 220C159.249 220 110 269.249 110 330C110 390.751 159.249 440 220 440C280.751 440 330 390.751 330 330C330 269.249 280.751 220 220 220Z" fill="white"/>
<path fill-rule="evenodd" clip-rule="evenodd" d="M220.707 220.707C178.14 263.274 178.14 332.289 220.707 374.856C263.274 417.424 332.289 417.424 374.856 374.856C417.424 332.289 417.424 263.274 374.856 220.707C332.289 178.14 263.274 178.14 220.707 220.707ZM220 220C177.042 262.958 177.042 332.606 220 375.563C262.958 418.521 332.606 418.521 375.563 375.563C418.521 332.606 418.521 262.958 375.563 220C332.606 177.042 262.958 177.042 220 220Z" fill="white"/>
<path fill-rule="evenodd" clip-rule="evenodd" d="M221 220C221 280.199 269.801 329 330 329C390.199 329 439 280.199 439 220C439 159.801 390.199 111 330 111C269.801 111 221 159.801 221 220ZM220 220C220 280.751 269.249 330 330 330C390.751 330 440 280.751 440 220C440 159.249 390.751 110 330 110C269.249 110 220 159.249 220 220Z" fill="white"/>
<path fill-rule="evenodd" clip-rule="evenodd" d="M220.707 219.293C263.274 261.86 332.289 261.86 374.856 219.293C417.424 176.726 417.424 107.711 374.856 65.1436C332.289 22.5765 263.274 22.5765 220.707 65.1436C178.14 107.711 178.14 176.726 220.707 219.293ZM220 220C262.958 262.958 332.606 262.958 375.563 220C418.521 177.042 418.521 107.394 375.563 64.4365C332.606 21.4789 262.958 21.4789 220 64.4365C177.042 107.394 177.042 177.042 220 220Z" fill="white"/>
</g>
</svg>
