<svg width="568" height="573" viewBox="0 0 568 573" fill="none" xmlns="http://www.w3.org/2000/svg">
<path fill-rule="evenodd" clip-rule="evenodd" d="M171.543 415.566C170.628 399.637 164.618 380.29 153.682 361.335C142.747 342.38 129.006 327.492 115.674 318.727C102.288 309.926 89.5993 307.46 80.517 312.699C71.4348 317.939 67.2183 330.158 68.1368 346.152C69.0516 362.081 75.062 381.428 85.9975 400.383C96.9331 419.338 110.674 434.226 124.005 442.991C137.391 451.792 150.08 454.259 159.163 449.019C168.245 443.779 172.461 431.56 171.543 415.566ZM159.662 449.885C178.831 438.826 176.542 398.957 154.548 360.835C132.555 322.713 99.1863 300.774 80.0173 311.833C60.8484 322.892 63.138 362.761 85.1313 400.883C107.125 439.005 140.493 460.944 159.662 449.885Z" fill="white"/>
<path fill-rule="evenodd" clip-rule="evenodd" d="M238.939 429.522C237.273 400.516 226.336 365.347 206.477 330.924C186.618 296.501 161.646 269.428 137.369 253.467C113.038 237.47 89.6906 232.796 72.8307 242.523C55.9707 252.25 48.3298 274.801 49.9993 303.872C51.6651 332.878 62.6019 368.048 82.4612 402.471C102.32 436.894 127.293 463.966 151.569 479.928C175.9 495.925 199.248 500.598 216.108 490.871C232.968 481.144 240.608 458.593 238.939 429.522ZM216.607 491.737C251.332 471.704 247.184 399.482 207.343 330.424C167.502 261.366 107.055 221.624 72.3309 241.657C37.6065 261.69 41.7542 333.913 81.595 402.971C121.436 472.028 181.883 511.771 216.607 491.737Z" fill="white"/>
<path fill-rule="evenodd" clip-rule="evenodd" d="M288.153 431.735C286.064 395.352 272.348 351.256 247.454 308.107C222.561 264.958 191.252 231.012 160.801 210.991C130.296 190.935 100.935 185.016 79.6877 197.274C58.44 209.532 48.8673 237.912 50.9605 274.36C53.05 310.744 66.7659 354.84 91.6594 397.989C116.553 441.138 147.861 475.084 178.312 495.105C208.818 515.161 238.178 521.08 259.426 508.822C280.674 496.564 290.246 468.184 288.153 431.735ZM259.926 509.688C303.426 484.592 298.23 394.118 248.32 307.608C198.411 221.098 122.688 171.312 79.188 196.408C35.6881 221.504 40.8839 311.978 90.7933 398.488C140.703 484.998 216.426 534.784 259.926 509.688Z" fill="white"/>
<path fill-rule="evenodd" clip-rule="evenodd" d="M328.927 427.801C326.55 386.419 310.951 336.275 282.646 287.213C254.342 238.152 218.741 199.548 184.106 176.777C149.417 153.969 115.982 147.207 91.7614 161.18C67.5407 175.154 56.6591 207.483 59.0393 248.93C61.4158 290.312 77.0149 340.456 105.319 389.517C133.624 438.578 169.225 477.183 203.86 499.954C238.549 522.761 271.984 529.524 296.205 515.55C320.425 501.577 331.307 469.248 328.927 427.801ZM296.704 516.416C346.15 487.89 340.244 385.049 283.513 286.714C226.781 188.379 140.708 131.788 91.2617 160.314C41.8158 188.84 47.7218 291.682 104.453 390.017C161.185 488.352 247.258 544.943 296.704 516.416Z" fill="white"/>
<path fill-rule="evenodd" clip-rule="evenodd" d="M365.372 420.803C362.794 375.912 345.873 321.523 315.175 268.312C284.476 215.1 245.861 173.227 208.29 148.525C170.664 123.787 134.37 116.433 108.062 131.61C81.7549 146.787 69.9546 181.889 72.5363 226.844C75.1143 271.734 92.0351 326.123 122.734 379.335C153.433 432.546 192.047 474.42 229.619 499.122C267.244 523.859 303.539 531.214 329.846 516.037C356.153 500.859 367.954 465.758 365.372 420.803ZM330.346 516.903C383.965 485.969 377.561 374.447 316.041 267.812C254.521 161.177 161.182 99.8096 107.563 130.744C53.9433 161.678 60.3478 273.2 121.868 379.835C183.387 486.469 276.726 547.837 330.346 516.903Z" fill="white"/>
<path fill-rule="evenodd" clip-rule="evenodd" d="M399.278 411.694C396.548 364.161 378.632 306.574 346.13 250.237C313.627 193.899 272.743 149.563 232.959 123.407C193.121 97.2146 154.673 89.4138 126.794 105.498C98.9145 121.582 86.4221 158.772 89.1556 206.37C91.8854 253.903 109.802 311.49 142.304 367.828C174.806 424.165 215.691 468.501 255.474 494.657C295.312 520.85 333.76 528.65 361.64 512.566C389.519 496.482 402.012 459.293 399.278 411.694ZM362.14 513.432C418.903 480.685 412.123 362.624 346.996 249.737C281.869 136.85 183.057 71.8839 126.294 104.632C69.5309 137.38 76.311 255.44 141.438 368.327C206.565 481.215 305.376 546.18 362.14 513.432Z" fill="white"/>
<path fill-rule="evenodd" clip-rule="evenodd" d="M428.035 400.866C425.227 351.964 406.795 292.723 373.359 234.767C339.924 176.812 297.864 131.201 256.936 104.292C215.953 77.3472 176.39 69.3155 147.697 85.8691C119.004 102.423 106.154 140.693 108.966 189.659C111.774 238.56 130.206 297.802 163.642 355.758C197.077 413.713 239.137 459.323 280.065 486.233C321.048 513.177 360.611 521.209 389.304 504.656C417.997 488.102 430.847 449.832 428.035 400.866ZM389.803 505.522C448.194 471.835 441.219 350.39 374.226 234.267C307.232 118.144 205.588 51.3163 147.198 85.0029C88.8073 118.689 95.7818 240.134 162.775 356.257C229.769 472.38 331.413 539.208 389.803 505.522Z" fill="white"/>
<path fill-rule="evenodd" clip-rule="evenodd" d="M452.735 387.286C449.916 338.187 431.41 278.706 397.839 220.517C364.268 162.328 322.039 116.533 280.946 89.5154C239.798 62.4617 200.073 54.3967 171.263 71.018C142.453 87.6394 129.55 126.066 132.374 175.23C135.193 224.328 153.699 283.809 187.27 341.999C220.841 400.188 263.07 445.982 304.163 473C345.311 500.054 385.036 508.119 413.846 491.497C442.656 474.876 455.559 436.45 452.735 387.286ZM414.346 492.364C472.971 458.541 465.969 336.608 398.705 220.017C331.442 103.427 229.389 36.3297 170.763 70.1519C112.138 103.974 119.14 225.908 186.404 342.498C253.667 459.089 355.72 526.186 414.346 492.364Z" fill="white"/>
<path fill-rule="evenodd" clip-rule="evenodd" d="M473.598 370.078C470.856 322.34 452.862 264.505 420.22 207.925C387.578 151.346 346.518 106.819 306.563 80.5498C266.554 54.2449 227.939 46.4096 199.938 62.564C171.936 78.7185 159.39 116.07 162.136 163.873C164.877 211.611 182.871 269.446 215.513 326.025C248.155 382.605 289.215 427.132 329.17 453.401C369.179 479.706 407.794 487.541 435.796 471.387C463.797 455.232 476.343 417.881 473.598 370.078ZM436.295 472.253C493.302 439.365 486.493 320.797 421.087 207.426C355.68 94.054 256.445 28.8095 199.438 61.6978C142.431 94.5862 149.24 213.153 214.647 326.525C280.053 439.897 379.288 505.141 436.295 472.253Z" fill="white"/>
<path fill-rule="evenodd" clip-rule="evenodd" d="M490.53 351.389C487.912 305.806 470.731 250.578 439.559 196.547C408.387 142.516 369.178 99.9975 331.026 74.9141C292.821 49.795 255.962 42.3233 229.242 57.7384C202.523 73.1534 190.541 108.802 193.162 154.451C195.78 200.034 212.962 255.261 244.134 309.292C275.305 363.323 314.515 405.842 352.666 430.926C390.872 456.045 427.731 463.516 454.45 448.101C481.17 432.686 493.152 397.038 490.53 351.389ZM454.95 448.968C509.394 417.558 502.891 304.322 440.425 196.048C377.96 87.7736 283.186 25.4626 228.742 56.8722C174.299 88.2818 180.802 201.518 243.267 309.792C305.733 418.066 400.506 480.377 454.95 448.968Z" fill="white"/>
<path fill-rule="evenodd" clip-rule="evenodd" d="M505.132 329.818C502.698 287.439 486.723 236.088 457.738 185.847C428.753 135.605 392.295 96.0714 356.825 72.751C321.301 49.3949 287.053 42.464 262.239 56.7797C237.425 71.0954 226.282 104.213 228.72 146.657C231.153 189.037 247.128 240.388 276.114 290.629C305.099 340.871 341.557 380.405 377.027 403.725C412.551 427.081 446.799 434.012 471.613 419.696C496.427 405.38 507.57 372.263 505.132 329.818ZM472.112 420.562C522.745 391.351 516.697 286.042 458.604 185.347C400.511 84.6518 312.372 26.7026 261.739 55.9135C211.107 85.1245 217.154 190.434 275.247 291.129C333.34 391.824 421.48 449.773 472.112 420.562Z" fill="white"/>
<path fill-rule="evenodd" clip-rule="evenodd" d="M515.172 306.144C512.997 268.267 498.718 222.364 472.806 177.448C446.893 132.532 414.301 97.1933 382.6 76.3506C350.844 55.472 320.266 49.3011 298.13 62.0719C275.994 74.8427 266.03 104.403 268.209 142.345C270.384 180.222 284.663 226.125 310.576 271.041C336.489 315.957 369.08 351.295 400.782 372.138C432.537 393.017 463.115 399.188 485.251 386.417C507.388 373.646 517.351 344.086 515.172 306.144ZM485.751 387.283C531.028 361.162 525.62 266.992 473.672 176.948C421.724 86.9042 342.907 35.0846 297.631 61.2057C252.354 87.3268 257.762 181.497 309.71 271.541C361.658 361.585 440.474 413.404 485.751 387.283Z" fill="white"/>
<path fill-rule="evenodd" clip-rule="evenodd" d="M519.192 277.617C517.396 246.347 505.606 208.438 484.202 171.337C462.797 134.236 435.881 105.054 409.709 87.8465C383.483 70.6036 358.29 65.5479 340.084 76.0517C321.877 86.5554 313.643 110.896 315.443 142.231C317.239 173.501 329.028 211.41 350.433 248.511C371.837 285.612 398.754 314.794 424.925 332.001C451.151 349.244 476.344 354.3 494.551 343.796C512.757 333.292 520.991 308.952 519.192 277.617ZM495.05 344.662C532.468 323.075 527.999 245.251 485.068 170.837C442.137 96.4232 377.002 53.5984 339.584 75.1855C302.166 96.7725 306.636 174.597 349.566 249.011C392.497 323.425 457.633 366.249 495.05 344.662Z" fill="white"/>
<path fill-rule="evenodd" clip-rule="evenodd" d="M506.272 239.457C505.187 219.352 497.689 194.93 483.988 170.991C470.288 147.053 453.029 128.218 436.243 117.098C419.403 105.943 403.324 102.716 391.737 109.348C380.15 115.979 374.787 131.477 375.876 151.648C376.96 171.753 384.458 196.175 398.159 220.114C411.859 244.052 429.119 262.887 445.904 274.007C462.744 285.162 478.823 288.388 490.41 281.757C501.997 275.125 507.36 259.628 506.272 239.457ZM490.907 282.625C515.087 268.786 512.379 218.583 484.856 170.495C457.334 122.406 415.421 94.641 391.24 108.48C367.06 122.319 369.769 172.521 397.291 220.61C424.813 268.699 466.726 296.464 490.907 282.625Z" fill="white"/>
</svg>
