<svg width="246" height="87" viewBox="0 0 246 87" fill="none" xmlns="http://www.w3.org/2000/svg">
<path d="M0.515701 86.4194C0.175771 86.2956 0.000467487 85.9194 0.12589 85.5801C9.3692 60.574 26.0245 38.9779 47.873 23.6829C69.9006 8.26266 96.1397 -0.0058158 123.028 3.06912e-06C149.917 0.00582194 176.152 8.28566 198.173 23.7155C220.015 39.0199 236.661 60.6232 245.894 85.6332C246.019 85.9726 245.843 86.3488 245.503 86.4724C245.163 86.596 244.788 86.4201 244.662 86.0808C235.522 61.3235 219.043 39.9385 197.422 24.7883C175.621 9.5128 149.648 1.31576 123.028 1.31C96.4083 1.30424 70.4316 9.49003 48.6243 24.7561C26.9961 39.8969 10.5082 61.2748 1.3569 86.0281C1.23146 86.3674 0.855631 86.5431 0.515701 86.4194Z" fill="#262626"/>
</svg>
