<svg width="26" height="23" viewBox="0 0 26 23" fill="none" xmlns="http://www.w3.org/2000/svg">
<path fill-rule="evenodd" clip-rule="evenodd" d="M13.091 0.500331C14.7392 0.488335 16.3734 0.80241 17.8998 1.42449C19.4273 2.04705 20.8165 2.96578 21.9872 4.12773C23.158 5.28967 24.0873 6.67184 24.7214 8.19458C25.3555 9.71732 25.682 11.3505 25.682 13V20C25.682 20.663 25.4186 21.2989 24.9497 21.7678C24.4809 22.2366 23.845 22.5 23.182 22.5H21.182C20.5189 22.5 19.8831 22.2366 19.4142 21.7678C18.9454 21.2989 18.682 20.663 18.682 20V15C18.682 14.337 18.9454 13.7011 19.4142 13.2322C19.8831 12.7634 20.5189 12.5 21.182 12.5H24.6711C24.6125 11.1532 24.3175 9.82587 23.7982 8.57901C23.2148 7.17809 22.3599 5.90649 21.2828 4.83751C20.2057 3.76852 18.9276 2.92329 17.5223 2.35053C16.117 1.77778 14.6123 1.48883 13.0948 1.50033L13.0872 1.50039C11.5697 1.48888 10.0649 1.77778 8.65963 2.35053C7.25433 2.92329 5.97628 3.76852 4.89916 4.83751C3.82204 5.90649 2.96714 7.17809 2.38375 8.57901C1.86451 9.82587 1.56948 11.1532 1.51087 12.5H5C5.66304 12.5 6.29893 12.7634 6.76777 13.2322C7.23661 13.7011 7.5 14.337 7.5 15V20C7.5 20.663 7.23661 21.2989 6.76777 21.7678C6.29893 22.2366 5.66304 22.5 5 22.5H3C2.33696 22.5 1.70107 22.2366 1.23223 21.7678C0.763392 21.2989 0.5 20.663 0.5 20V13C0.500001 11.3505 0.826471 9.71732 1.46059 8.19458C2.09472 6.67184 3.02395 5.28967 4.19474 4.12773C5.36552 2.96578 6.7547 2.04705 8.28221 1.42449C9.80854 0.80241 11.4428 0.488335 13.091 0.500331ZM1.5 13.5V20C1.5 20.3978 1.65804 20.7794 1.93934 21.0607C2.22064 21.342 2.60218 21.5 3 21.5H5C5.39782 21.5 5.77936 21.342 6.06066 21.0607C6.34196 20.7794 6.5 20.3978 6.5 20V15C6.5 14.6022 6.34196 14.2207 6.06066 13.9393C5.77936 13.658 5.39782 13.5 5 13.5H1.5ZM24.682 13.5H21.182C20.7842 13.5 20.4026 13.658 20.1213 13.9393C19.84 14.2207 19.682 14.6022 19.682 15V20C19.682 20.3978 19.84 20.7794 20.1213 21.0607C20.4026 21.342 20.7842 21.5 21.182 21.5H23.182C23.5798 21.5 23.9613 21.342 24.2426 21.0607C24.5239 20.7794 24.682 20.3978 24.682 20V13.5Z" fill="#1C1C1C"/>
</svg>
