<svg width="18" height="19" viewBox="0 0 18 19" fill="none" xmlns="http://www.w3.org/2000/svg">
<path fill-rule="evenodd" clip-rule="evenodd" d="M8.15856 1.08799C8.38865 0.878784 8.68846 0.762854 8.99944 0.762844C9.31042 0.762834 9.61024 0.878743 9.84034 1.08794L17.3409 7.90685C17.4697 8.02401 17.5727 8.1668 17.6431 8.32608C17.7136 8.48535 17.75 8.6576 17.75 8.83176V17.5C17.75 17.8315 17.6183 18.1495 17.3839 18.3839C17.1495 18.6183 16.8315 18.75 16.5 18.75H1.5C1.16848 18.75 0.850538 18.6183 0.616117 18.3839C0.381696 18.1495 0.25 17.8315 0.25 17.5V8.83173C0.25 8.65758 0.286389 8.48535 0.356835 8.32609C0.427281 8.16682 0.53023 8.02403 0.65908 7.90688L8.15856 1.08799ZM8.99948 1.76284C8.93728 1.76285 8.87732 1.78603 8.8313 1.82787L1.33182 8.64676C1.30605 8.67019 1.28546 8.69875 1.27137 8.7306C1.25728 8.76245 1.25 8.7969 1.25 8.83173V17.5C1.25 17.5663 1.27634 17.6299 1.32322 17.6768C1.37011 17.7237 1.4337 17.75 1.5 17.75H16.5C16.5663 17.75 16.6299 17.7236 16.6768 17.6768C16.7237 17.6299 16.75 17.5663 16.75 17.5V8.83176C16.75 8.79693 16.7427 8.76248 16.7286 8.73062C16.7145 8.69877 16.6939 8.67021 16.6682 8.64678L9.16766 1.82786C9.12164 1.78602 9.06167 1.76284 8.99948 1.76284Z" fill="white"/>
</svg>
