<svg width="82" height="64" viewBox="0 0 82 64" fill="none" xmlns="http://www.w3.org/2000/svg">
<path d="M0.0157394 31.8945L0.801869 31.1083L13.3799 43.6864L12.5938 44.4725L0.0157394 31.8945Z" fill="#262626"/>
<path d="M11.7919 20.0869L12.5781 19.3007L24.37 31.0927L23.5839 31.8788L11.7919 20.0869Z" fill="#262626"/>
<path d="M24.3546 32.6803L25.1408 31.8942L31.4298 38.1832L30.6437 38.9693L24.3546 32.6803Z" fill="#262626"/>
<path d="M33.8036 42.0985L34.5897 41.3123L50.3123 57.0349L49.5261 57.821L33.8036 42.0985Z" fill="#262626"/>
<path d="M50.3123 44.4568L51.0984 43.6707L57.3874 49.9597L56.6013 50.7459L50.3123 44.4568Z" fill="#262626"/>
<path d="M52.6707 42.0985L53.4568 41.3123L62.1042 49.9598L61.3181 50.7459L52.6707 42.0985Z" fill="#262626"/>
<path d="M31.4452 44.4569L32.2313 43.6707L50.3123 61.7517L49.5261 62.5378L31.4452 44.4569Z" fill="#262626"/>
<path d="M11.7919 24.8036L12.5781 24.0175L22.0116 33.451L21.2255 34.2372L11.7919 24.8036Z" fill="#262626"/>
<path d="M21.9962 35.0387L22.7824 34.2526L29.8575 41.3277L29.0714 42.1138L21.9962 35.0387Z" fill="#262626"/>
<path d="M30.659 1.21972L31.4452 0.433594L50.3123 19.3007L49.5261 20.0868L30.659 1.21972Z" fill="#262626"/>
<path d="M49.5415 1.2351L50.3276 0.448972L62.9057 13.027L62.1196 13.8132L49.5415 1.2351Z" fill="#262626"/>
<path d="M68.4086 20.1022L69.1947 19.3161L81.7728 31.8941L80.9867 32.6803L68.4086 20.1022Z" fill="#262626"/>
<path d="M23.5839 50.7459L24.37 49.9598L32.2313 57.8211L31.4452 58.6072L23.5839 50.7459Z" fill="#262626"/>
<path d="M5.48753 32.6803L6.27366 31.8942L13.3488 38.9693L12.5627 39.7554L5.48753 32.6803Z" fill="#262626"/>
<path d="M23.5839 13.0117L24.37 12.2255L31.4452 19.3007L30.659 20.0868L23.5839 13.0117Z" fill="#262626"/>
<path d="M33.0174 22.4452L33.8036 21.6591L50.3123 38.1678L49.5261 38.9539L33.0174 22.4452Z" fill="#262626"/>
<path d="M52.6707 23.2313L53.4568 22.4452L69.9655 38.9539L69.1794 39.7401L52.6707 23.2313Z" fill="#262626"/>
<path d="M30.659 24.8036L31.4452 24.0175L47.9539 40.5262L47.1678 41.3123L30.659 24.8036Z" fill="#262626"/>
<path d="M50.3123 25.5897L51.0984 24.8036L69.9655 43.6707L69.1794 44.4569L50.3123 25.5897Z" fill="#262626"/>
<path d="M30.659 5.9365L31.4452 5.15037L47.9539 21.6591L47.1678 22.4452L30.659 5.9365Z" fill="#262626"/>
<path d="M49.5261 5.9365L50.3123 5.15037L58.1736 13.0117L57.3874 13.7978L49.5261 5.9365Z" fill="#262626"/>
<path d="M68.3933 24.8036L69.1794 24.0175L77.0407 31.8788L76.2545 32.6649L68.3933 24.8036Z" fill="#262626"/>
<path d="M18.8825 50.7613L19.6686 49.9751L32.2467 62.5532L31.4605 63.3393L18.8825 50.7613Z" fill="#262626"/>
<path d="M0.0157394 31.8945L0.801869 31.1083L13.3799 43.6864L12.5938 44.4725L0.0157394 31.8945Z" fill="#262626"/>
<path d="M62.1042 12.2256L62.8903 13.0117L44.0232 31.8788L43.2371 31.0927L62.1042 12.2256Z" fill="#262626"/>
<path d="M40.0926 34.2372L40.8787 35.0233L24.37 51.532L23.5839 50.7459L40.0926 34.2372Z" fill="#262626"/>
<path d="M59.7458 33.451L60.532 34.2372L44.0232 50.7459L43.2371 49.9598L59.7458 33.451Z" fill="#262626"/>
<path d="M40.0926 53.1043L40.8787 53.8904L31.4452 63.324L30.659 62.5378L40.0926 53.1043Z" fill="#262626"/>
<path d="M80.9867 31.108L81.7728 31.8941L69.1947 44.4722L68.4086 43.6861L80.9867 31.108Z" fill="#262626"/>
<path d="M31.4452 5.15037L32.2313 5.9365L24.37 13.7978L23.5839 13.0117L31.4452 5.15037Z" fill="#262626"/>
<path d="M62.1196 49.9751L62.9057 50.7613L50.3276 63.3393L49.5415 62.5532L62.1196 49.9751Z" fill="#262626"/>
<path d="M12.5627 24.0329L13.3488 24.819L5.48753 32.6803L4.7014 31.8942L12.5627 24.0329Z" fill="#262626"/>
<path d="M57.3874 12.2256L58.1736 13.0117L41.6648 29.5204L40.8787 28.7343L57.3874 12.2256Z" fill="#262626"/>
<path d="M37.7342 31.8788L38.5203 32.6649L20.4394 50.7459L19.6532 49.9598L37.7342 31.8788Z" fill="#262626"/>
<path d="M57.3874 31.0926L58.1736 31.8788L41.6648 48.3875L40.8787 47.6014L57.3874 31.0926Z" fill="#262626"/>
<path d="M37.7342 50.7459L38.5203 51.532L31.4452 58.6072L30.659 57.8211L37.7342 50.7459Z" fill="#262626"/>
<path d="M76.2545 31.0926L77.0407 31.8788L69.1794 39.7401L68.3932 38.9539L76.2545 31.0926Z" fill="#262626"/>
<path d="M68.7863 19.6938L69.5724 20.4799L59.7458 30.3065L58.9597 29.5204L68.7863 19.6938Z" fill="#262626"/>
<path d="M69.1794 24.0175L69.9655 24.8036L62.1042 32.6649L61.3181 31.8788L69.1794 24.0175Z" fill="#262626"/>
<path d="M31.4605 0.448968L32.2467 1.2351L19.6686 13.8132L18.8825 13.027L31.4605 0.448968Z" fill="#262626"/>
<path d="M57.3874 49.9597L58.1736 50.7459L50.3123 58.6072L49.5261 57.821L57.3874 49.9597Z" fill="#262626"/>
<path d="M12.5934 19.3161L13.3796 20.1022L0.801487 32.6803L0.0157394 31.8945L12.5934 19.3161Z" fill="#262626"/>
<path d="M18.8671 13.0117L19.6532 12.2255L29.0868 21.6591L28.3006 22.4452L18.8671 13.0117Z" fill="#262626"/>
<path d="M22.0116 33.451L22.7977 34.2372L12.5781 44.4568L11.7919 43.6707L22.0116 33.451Z" fill="#262626"/>
<path d="M18.8671 31.8788L19.6532 32.6649L13.3642 38.9539L12.5781 38.1678L18.8671 31.8788Z" fill="#262626"/>
<path d="M37.7342 13.0117L38.5203 13.7978L22.7977 29.5204L22.0116 28.7342L37.7342 13.0117Z" fill="#262626"/>
<path d="M50.3123 0.433609L51.0984 1.21974L41.6648 10.6533L40.8787 9.86716L50.3123 0.433609Z" fill="#262626"/>
<path d="M40.0926 15.3701L40.8787 16.1562L24.37 32.6649L23.5839 31.8788L40.0926 15.3701Z" fill="#262626"/>
<path d="M50.3123 5.15037L51.0984 5.9365L44.0232 13.0117L43.2371 12.2255L50.3123 5.15037Z" fill="#262626"/>
<path d="M12.5934 19.3161L13.3796 20.1022L0.801487 32.6803L0.0157394 31.8945L12.5934 19.3161Z" fill="#262626"/>
</svg>
