<svg width="20" height="22" viewBox="0 0 20 22" fill="none" xmlns="http://www.w3.org/2000/svg">
<path fill-rule="evenodd" clip-rule="evenodd" d="M9.99945 11.6875C9.15376 11.6875 8.4682 12.3731 8.4682 13.2188C8.4682 14.0644 9.15376 14.75 9.99945 14.75C10.8451 14.75 11.5307 14.0644 11.5307 13.2188C11.5307 12.3731 10.8451 11.6875 9.99945 11.6875ZM7.4682 13.2188C7.4682 11.8208 8.60148 10.6875 9.99945 10.6875C11.3974 10.6875 12.5307 11.8208 12.5307 13.2188C12.5307 14.6167 11.3974 15.75 9.99945 15.75C8.60148 15.75 7.4682 14.6167 7.4682 13.2188Z" fill="white"/>
<path fill-rule="evenodd" clip-rule="evenodd" d="M9.99945 14.75C10.2756 14.75 10.4995 14.9739 10.4995 15.25V17.6875C10.4995 17.9636 10.2756 18.1875 9.99945 18.1875C9.72331 18.1875 9.49945 17.9636 9.49945 17.6875V15.25C9.49945 14.9739 9.72331 14.75 9.99945 14.75Z" fill="white"/>
<path fill-rule="evenodd" clip-rule="evenodd" d="M1.87445 8.4375C1.70186 8.4375 1.56195 8.57741 1.56195 8.75V20.125C1.56195 20.2976 1.70186 20.4375 1.87445 20.4375H18.1245C18.297 20.4375 18.437 20.2976 18.437 20.125V8.75C18.437 8.57741 18.297 8.4375 18.1245 8.4375H1.87445ZM0.561951 8.75C0.561951 8.02513 1.14958 7.4375 1.87445 7.4375H18.1245C18.8493 7.4375 19.437 8.02513 19.437 8.75V20.125C19.437 20.8499 18.8493 21.4375 18.1245 21.4375H1.87445C1.14958 21.4375 0.561951 20.8499 0.561951 20.125V8.75Z" fill="white"/>
<path fill-rule="evenodd" clip-rule="evenodd" d="M9.99945 1.125C9.16236 1.125 8.35956 1.45753 7.76765 2.04944C7.17573 2.64136 6.8432 3.44416 6.8432 4.28125V7.9375C6.8432 8.21364 6.61934 8.4375 6.3432 8.4375C6.06706 8.4375 5.8432 8.21364 5.8432 7.9375V4.28125C5.8432 3.17894 6.28109 2.12179 7.06054 1.34234C7.83999 0.562889 8.89714 0.125 9.99945 0.125C11.1018 0.125 12.1589 0.562889 12.9384 1.34234C13.7178 2.12179 14.1557 3.17894 14.1557 4.28125V7.9375C14.1557 8.21364 13.9318 8.4375 13.6557 8.4375C13.3796 8.4375 13.1557 8.21364 13.1557 7.9375V4.28125C13.1557 3.44416 12.8232 2.64136 12.2313 2.04944C11.6393 1.45753 10.8365 1.125 9.99945 1.125Z" fill="white"/>
</svg>
