<svg width="120" height="120" viewBox="0 0 120 120" fill="none" xmlns="http://www.w3.org/2000/svg">
<path d="M77.6009 30.5861C77.6009 38.5619 74.0183 45.8106 69.9737 51.0805C67.9535 53.7126 65.8288 55.8368 64.0009 57.298C63.0864 58.029 62.2541 58.5878 61.5532 58.9612C60.8353 59.3437 60.3127 59.5001 60 59.5001C59.6873 59.5001 59.1647 59.3437 58.4468 58.9612C57.7458 58.5878 56.9135 58.0291 55.9991 57.2981C54.1712 55.8369 52.0464 53.7127 50.0263 51.0805C45.9817 45.8106 42.399 38.5619 42.399 30.5861C42.399 22.6094 45.9824 15.2975 50.0272 9.99623C52.0474 7.3484 54.1715 5.21741 55.9976 3.76924C56.9112 3.04462 57.7413 2.49817 58.4386 2.14298C59.1548 1.77819 59.6656 1.64941 59.9644 1.67075C60.2919 1.69415 60.8261 1.87883 61.5453 2.27877C62.2496 2.67043 63.0842 3.24149 63.9994 3.97891C65.8291 5.45314 67.9545 7.57054 69.9745 10.187C74.0189 15.4255 77.6009 22.6111 77.6009 30.5861Z" fill="black" stroke="#262626"/>
<path d="M42.3991 89.4139C42.3991 81.4382 45.9817 74.1894 50.0263 68.9195C52.0465 66.2874 54.1712 64.1632 55.9991 62.702C56.9136 61.971 57.7459 61.4122 58.4468 61.0388C59.1647 60.6564 59.6873 60.4999 60 60.4999C60.3127 60.4999 60.8353 60.6564 61.5532 61.0388C62.2542 61.4122 63.0865 61.9709 64.0009 62.702C65.8288 64.1631 67.9536 66.2874 69.9737 68.9195C74.0183 74.1894 77.601 81.4382 77.601 89.414C77.601 97.3906 74.0176 104.703 69.9728 110.004C67.9526 112.652 65.8285 114.783 64.0024 116.231C63.0888 116.955 62.2587 117.502 61.5614 117.857C60.8452 118.222 60.3344 118.351 60.0356 118.329C59.7081 118.306 59.1739 118.121 58.4547 117.721C57.7503 117.33 56.9158 116.759 56.0006 116.021C54.1709 114.547 52.0455 112.429 50.0255 109.813C45.9811 104.574 42.3991 97.3889 42.3991 89.4139Z" fill="black" stroke="#262626"/>
<path d="M30.0502 76.6727C34.0381 69.7655 40.7652 65.2792 46.9028 62.7377C49.9684 61.4683 52.8706 60.691 55.1842 60.3395C56.3416 60.1637 57.3418 60.0959 58.1355 60.123C58.9485 60.1508 59.4793 60.2766 59.7501 60.4329C60.0209 60.5893 60.3952 60.986 60.8258 61.6762C61.2461 62.35 61.6875 63.2501 62.114 64.3404C62.9664 66.5198 63.7443 69.4218 64.1778 72.7113C65.0455 79.2975 64.5238 87.3664 60.5359 94.2737C56.5476 101.182 49.7884 105.722 43.6349 108.291C40.5614 109.574 37.6564 110.357 35.3509 110.698C34.1973 110.869 33.2052 110.927 32.4237 110.886C31.6211 110.844 31.1144 110.7 30.8663 110.532C30.5943 110.348 30.2241 109.921 29.8012 109.215C29.387 108.524 28.9498 107.612 28.5259 106.516C27.6785 104.324 26.8965 101.428 26.4553 98.152C25.572 91.5931 26.0627 83.5793 30.0502 76.6727Z" fill="black" stroke="#262626"/>
<path d="M25.7263 59.4641C32.6336 55.4763 40.7025 54.9546 47.2886 55.8223C50.5782 56.2558 53.4802 57.0338 55.6596 57.8861C56.7499 58.3126 57.6499 58.754 58.3238 59.1743C59.0139 59.6049 59.4107 59.9792 59.5671 60.25C59.7234 60.5208 59.8492 61.0516 59.877 61.8646C59.9041 62.6583 59.8364 63.6585 59.6605 64.8159C59.309 67.1295 58.5318 70.0317 57.2623 73.0973C54.7208 79.2349 50.2345 85.962 43.3273 89.9499C36.4193 93.9382 28.2953 94.4909 21.6819 93.6386C18.3787 93.213 15.4711 92.4389 13.304 91.5816C12.2196 91.1527 11.3313 90.7071 10.6751 90.2807C10.001 89.8429 9.63413 89.4649 9.50322 89.1955C9.3597 88.9001 9.25257 88.3452 9.23931 87.5224C9.22632 86.7166 9.30362 85.7083 9.48463 84.547C9.8465 82.2253 10.6175 79.326 11.8734 76.2683C14.3879 70.1465 18.8198 63.4516 25.7263 59.4641Z" fill="black" stroke="#262626"/>
<path d="M30.586 42.3992C38.5618 42.3992 45.8106 45.9818 51.0804 50.0264C53.7126 52.0466 55.8368 54.1713 57.298 55.9992C58.029 56.9136 58.5878 57.746 58.9612 58.4469C59.3436 59.1648 59.5001 59.6874 59.5001 60.0001C59.5001 60.3128 59.3436 60.8354 58.9612 61.5533C58.5878 62.2543 58.029 63.0866 57.298 64.001C55.8368 65.8289 53.7126 67.9536 51.0805 69.9738C45.8106 74.0184 38.5618 77.601 30.586 77.601C22.6094 77.601 15.2974 74.0177 9.9962 69.9729C7.34837 67.9527 5.21738 65.8286 3.76921 64.0025C3.04459 63.0888 2.49814 62.2588 2.14295 61.5615C1.77816 60.8452 1.64939 60.3345 1.67072 60.0357C1.69412 59.7082 1.8788 59.174 2.27874 58.4548C2.6704 57.7504 3.24146 56.9159 3.97888 56.0007C5.45311 54.171 7.57051 52.0456 10.187 50.0255C15.4255 45.9811 22.6111 42.3992 30.586 42.3992Z" fill="black" stroke="#262626"/>
<path d="M43.3272 30.0502C50.2345 34.0381 54.7208 40.7652 57.2623 46.9028C58.5317 49.9684 59.309 52.8706 59.6605 55.1842C59.8363 56.3416 59.9041 57.3418 59.877 58.1355C59.8492 58.9485 59.7234 59.4793 59.5671 59.7501C59.4107 60.021 59.0139 60.3953 58.3238 60.8258C57.6499 61.2462 56.7499 61.6876 55.6596 62.114C53.4802 62.9664 50.5782 63.7444 47.2886 64.1778C40.7025 65.0456 32.6335 64.5239 25.7263 60.536C18.8184 56.5477 14.2777 49.7884 11.7091 43.6349C10.4261 40.5614 9.64265 37.6564 9.30152 35.3509C9.13083 34.1973 9.0726 33.2053 9.11367 32.4237C9.15586 31.6211 9.29971 31.1144 9.46759 30.8663C9.65162 30.5943 10.0786 30.2241 10.7846 29.8012C11.476 29.387 12.3878 28.9498 13.484 28.5259C15.6756 27.6785 18.572 26.8965 21.848 26.4554C28.4069 25.5721 36.4207 26.0628 43.3272 30.0502Z" fill="black" stroke="#262626"/>
<path d="M60.5359 25.7264C64.5238 32.6336 65.0455 40.7026 64.1777 47.2887C63.7443 50.5783 62.9663 53.4803 62.1139 55.6596C61.6875 56.7499 61.2461 57.65 60.8258 58.3238C60.3952 59.014 60.0209 59.4108 59.7501 59.5671C59.4792 59.7235 58.9485 59.8493 58.1355 59.8771C57.3418 59.9042 56.3416 59.8364 55.1842 59.6606C52.8706 59.3091 49.9684 58.5318 46.9028 57.2624C40.7652 54.7208 34.0381 50.2346 30.0502 43.3273C26.0619 36.4194 25.5092 28.2953 26.3614 21.6819C26.7871 18.3787 27.5611 15.4712 28.4185 13.304C28.8474 12.2196 29.293 11.3314 29.7194 10.6751C30.1572 10.0011 30.5351 9.63419 30.8046 9.50328C31.0999 9.35976 31.6549 9.25264 32.4777 9.23937C33.2835 9.22638 34.2918 9.30368 35.4531 9.48469C37.7748 9.84656 40.6741 10.6176 43.7318 11.8735C49.8536 14.388 56.5484 18.8199 60.5359 25.7264Z" fill="black" stroke="#262626"/>
<path d="M77.6009 30.5861C77.6009 38.5619 74.0183 45.8106 69.9737 51.0805C67.9535 53.7126 65.8288 55.8368 64.0009 57.298C63.0864 58.029 62.2541 58.5878 61.5532 58.9612C60.8353 59.3437 60.3127 59.5001 60 59.5001C59.6873 59.5001 59.1647 59.3437 58.4468 58.9612C57.7458 58.5878 56.9135 58.0291 55.9991 57.2981C54.1712 55.8369 52.0464 53.7127 50.0263 51.0805C45.9817 45.8106 42.399 38.5619 42.399 30.5861C42.399 22.6094 45.9824 15.2975 50.0272 9.99623C52.0474 7.3484 54.1715 5.21741 55.9976 3.76924C56.9112 3.04462 57.7413 2.49817 58.4386 2.14298C59.1548 1.77819 59.6656 1.64941 59.9644 1.67075C60.2919 1.69415 60.8261 1.87883 61.5453 2.27877C62.2496 2.67043 63.0842 3.24149 63.9994 3.97891C65.8291 5.45314 67.9545 7.57054 69.9745 10.187C74.0189 15.4255 77.6009 22.6111 77.6009 30.5861Z" fill="black" stroke="#262626"/>
<path d="M89.9499 43.3272C85.962 50.2345 79.2349 54.7208 73.0972 57.2623C70.0317 58.5317 67.1295 59.309 64.8159 59.6605C63.6585 59.8363 62.6583 59.9041 61.8645 59.877C61.0516 59.8492 60.5208 59.7234 60.25 59.5671C59.9791 59.4107 59.6048 59.0139 59.1743 58.3238C58.7539 57.6499 58.3125 56.7499 57.8861 55.6596C57.0337 53.4802 56.2557 50.5782 55.8223 47.2886C54.9545 40.7025 55.4762 32.6335 59.4641 25.7263C63.4524 18.8184 70.2117 14.2777 76.3652 11.7091C79.4387 10.4261 82.3437 9.64265 84.6492 9.30152C85.8028 9.13083 86.7948 9.07259 87.5763 9.11367C88.379 9.15586 88.8857 9.29971 89.1338 9.46758C89.4058 9.65162 89.776 10.0786 90.1989 10.7846C90.6131 11.476 91.0503 12.3878 91.4742 13.484C92.3216 15.6756 93.1036 18.572 93.5447 21.848C94.428 28.4069 93.9373 36.4207 89.9499 43.3272Z" fill="black" stroke="#262626"/>
<path d="M94.2737 60.5359C87.3664 64.5238 79.2975 65.0455 72.7114 64.1777C69.4218 63.7443 66.5198 62.9663 64.3404 62.1139C63.2501 61.6875 62.3501 61.2461 61.6762 60.8258C60.9861 60.3952 60.5893 60.0209 60.4329 59.7501C60.2766 59.4793 60.1508 58.9485 60.123 58.1355C60.0959 57.3418 60.1636 56.3416 60.3395 55.1842C60.691 52.8706 61.4682 49.9684 62.7377 46.9028C65.2792 40.7652 69.7655 34.0381 76.6727 30.0502C83.5807 26.0619 91.7047 25.5092 98.3181 26.3614C101.621 26.7871 104.529 27.5611 106.696 28.4185C107.78 28.8474 108.669 29.293 109.325 29.7194C109.999 30.1572 110.366 30.5351 110.497 30.8046C110.64 31.0999 110.747 31.6549 110.761 32.4777C110.774 33.2835 110.696 34.2918 110.515 35.4531C110.154 37.7748 109.382 40.6741 108.127 43.7318C105.612 49.8536 101.18 56.5484 94.2737 60.5359Z" fill="black" stroke="#262626"/>
<path d="M89.4139 77.6009C81.4381 77.6009 74.1894 74.0182 68.9195 69.9736C66.2874 67.9535 64.1632 65.8287 62.702 64.0008C61.9709 63.0864 61.4122 62.2541 61.0388 61.5532C60.6563 60.8352 60.4999 60.3127 60.4999 59.9999C60.4999 59.6872 60.6563 59.1647 61.0388 58.4467C61.4121 57.7458 61.9709 56.9135 62.7019 55.999C64.1631 54.1711 66.2873 52.0464 68.9195 50.0262C74.1893 45.9817 81.4381 42.399 89.4139 42.399C97.3905 42.399 104.703 45.9823 110.004 50.0271C112.652 52.0474 114.783 54.1715 116.231 55.9975C116.955 56.9112 117.502 57.7412 117.857 58.4386C118.222 59.1548 118.351 59.6655 118.329 59.9643C118.306 60.2919 118.121 60.826 117.721 61.5452C117.33 62.2496 116.758 63.0841 116.021 63.9993C114.547 65.829 112.429 67.9545 109.813 69.9745C104.574 74.0189 97.3889 77.6009 89.4139 77.6009Z" fill="black" stroke="#262626"/>
<path d="M76.6727 89.9498C69.7655 85.9619 65.2792 79.2348 62.7377 73.0972C61.4683 70.0316 60.691 67.1294 60.3395 64.8158C60.1637 63.6584 60.0959 62.6582 60.123 61.8645C60.1508 61.0515 60.2766 60.5207 60.4329 60.2499C60.5893 59.9791 60.986 59.6047 61.6762 59.1742C62.35 58.7539 63.2501 58.3124 64.3404 57.886C66.5198 57.0336 69.4218 56.2556 72.7113 55.8222C79.2975 54.9544 87.3664 55.4761 94.2737 59.464C101.182 63.4523 105.722 70.2116 108.291 76.3651C109.574 79.4386 110.357 82.3436 110.698 84.6491C110.869 85.8027 110.927 86.7947 110.886 87.5763C110.844 88.3789 110.7 88.8856 110.532 89.1337C110.348 89.4057 109.921 89.7759 109.215 90.1988C108.524 90.613 107.612 91.0502 106.516 91.4741C104.324 92.3215 101.428 93.1035 98.152 93.5446C91.5931 94.4279 83.5793 93.9372 76.6727 89.9498Z" fill="black" stroke="#262626"/>
<path d="M59.4641 94.2736C55.4762 87.3663 54.9545 79.2974 55.8223 72.7113C56.2557 69.4217 57.0337 66.5197 57.8861 64.3403C58.3125 63.25 58.754 62.35 59.1743 61.6761C59.6048 60.986 59.9791 60.5892 60.25 60.4328C60.5208 60.2765 61.0516 60.1507 61.8645 60.1229C62.6582 60.0958 63.6584 60.1636 64.8159 60.3394C67.1295 60.6909 70.0317 61.4681 73.0972 62.7376C79.2349 65.2791 85.962 69.7654 89.9498 76.6727C93.9382 83.5806 94.4909 91.7046 93.6386 98.318C93.2129 101.621 92.4389 104.529 91.5816 106.696C91.1526 107.78 90.707 108.669 90.2807 109.325C89.8428 109.999 89.4649 110.366 89.1955 110.497C88.9001 110.64 88.3452 110.747 87.5224 110.761C86.7165 110.774 85.7083 110.696 84.547 110.515C82.2253 110.153 79.3259 109.382 76.2683 108.126C70.1465 105.612 63.4516 101.18 59.4641 94.2736Z" fill="black" stroke="#262626"/>
<mask id="mask0" mask-type="alpha" maskUnits="userSpaceOnUse" x="54" y="59" width="41" height="53">
<path d="M59.4641 94.2735C55.4762 87.3663 54.9545 79.2973 55.8223 72.7112C56.2557 69.4216 57.0337 66.5196 57.8861 64.3403C58.3125 63.25 58.7539 62.3499 59.1743 61.6761C59.6048 60.9859 59.9791 60.5891 60.25 60.4328C60.5208 60.2764 61.0516 60.1506 61.8645 60.1228C62.6582 60.0957 63.6584 60.1635 64.8159 60.3393C67.1295 60.6908 70.0317 61.4681 73.0972 62.7375C79.2349 65.279 85.9619 69.7653 89.9498 76.6726C93.9382 83.5805 94.4909 91.7046 93.6386 98.3179C93.2129 101.621 92.4389 104.529 91.5816 106.696C91.1526 107.78 90.707 108.668 90.2807 109.325C89.8428 109.999 89.4649 110.366 89.1955 110.497C88.9001 110.64 88.3452 110.747 87.5223 110.761C86.7165 110.774 85.7083 110.696 84.547 110.515C82.2253 110.153 79.3259 109.382 76.2683 108.126C70.1465 105.612 63.4516 101.18 59.4641 94.2735Z" fill="black" stroke="white"/>
</mask>
<g mask="url(#mask0)">
<path d="M42.3991 89.4139C42.3991 81.4381 45.9817 74.1894 50.0263 68.9195C52.0465 66.2874 54.1712 64.1632 55.9991 62.702C56.9136 61.9709 57.7459 61.4122 58.4468 61.0388C59.1647 60.6563 59.6873 60.4999 60 60.4999C60.3127 60.4999 60.8353 60.6563 61.5532 61.0388C62.2542 61.4121 63.0865 61.9709 64.0009 62.7019C65.8288 64.1631 67.9536 66.2873 69.9737 68.9195C74.0183 74.1893 77.601 81.4381 77.601 89.4139C77.601 97.3905 74.0176 104.703 69.9728 110.004C67.9526 112.652 65.8285 114.783 64.0024 116.231C63.0888 116.955 62.2587 117.502 61.5614 117.857C60.8452 118.222 60.3344 118.351 60.0356 118.329C59.7081 118.306 59.1739 118.121 58.4547 117.721C57.7503 117.33 56.9158 116.758 56.0006 116.021C54.1709 114.547 52.0455 112.429 50.0255 109.813C45.9811 104.574 42.3991 97.3889 42.3991 89.4139Z" fill="black" stroke="#262626"/>
<path d="M30.0502 76.6727C34.0381 69.7655 40.7652 65.2792 46.9028 62.7376C49.9684 61.4682 52.8706 60.691 55.1842 60.3395C56.3416 60.1636 57.3418 60.0959 58.1355 60.123C58.9485 60.1507 59.4793 60.2765 59.7501 60.4329C60.0209 60.5893 60.3952 60.986 60.8258 61.6762C61.2461 62.35 61.6875 63.2501 62.114 64.3404C62.9664 66.5197 63.7443 69.4217 64.1778 72.7113C65.0455 79.2975 64.5238 87.3664 60.5359 94.2737C56.5476 101.182 49.7884 105.722 43.6349 108.291C40.5614 109.574 37.6564 110.357 35.3509 110.698C34.1973 110.869 33.2052 110.927 32.4237 110.886C31.6211 110.844 31.1144 110.7 30.8663 110.532C30.5943 110.348 30.2241 109.921 29.8012 109.215C29.387 108.524 28.9498 107.612 28.5259 106.516C27.6785 104.324 26.8965 101.428 26.4553 98.152C25.572 91.5931 26.0627 83.5792 30.0502 76.6727Z" fill="black" stroke="#262626"/>
<path d="M25.7263 59.4641C32.6336 55.4762 40.7025 54.9545 47.2886 55.8223C50.5782 56.2557 53.4802 57.0337 55.6596 57.8861C56.7499 58.3125 57.6499 58.7539 58.3238 59.1743C59.0139 59.6048 59.4107 59.9791 59.5671 60.2499C59.7234 60.5208 59.8492 61.0515 59.877 61.8645C59.9041 62.6582 59.8364 63.6584 59.6605 64.8158C59.309 67.1294 58.5318 70.0316 57.2623 73.0972C54.7208 79.2349 50.2345 85.9619 43.3273 89.9498C36.4193 93.9381 28.2953 94.4909 21.6819 93.6386C18.3787 93.2129 15.4711 92.4389 13.304 91.5816C12.2196 91.1526 11.3313 90.707 10.6751 90.2807C10.001 89.8428 9.63413 89.4649 9.50322 89.1954C9.3597 88.9001 9.25257 88.3452 9.23931 87.5223C9.22632 86.7165 9.30362 85.7082 9.48463 84.5469C9.8465 82.2253 10.6175 79.3259 11.8734 76.2682C14.3879 70.1464 18.8198 63.4516 25.7263 59.4641Z" fill="black" stroke="#262626"/>
</g>
<path d="M73.6334 36.9347C73.6334 43.2319 70.8221 48.9606 67.6427 53.1297C66.0551 55.2115 64.3863 56.8903 62.9528 58.0435C62.2355 58.6206 61.585 59.0597 61.0399 59.352C60.4777 59.6534 60.0854 59.7667 59.8667 59.7667C59.648 59.7667 59.2557 59.6534 58.6935 59.352C58.1484 59.0598 57.4979 58.6206 56.7806 58.0436C55.3471 56.8903 53.6783 55.2115 52.0907 53.1297C48.9113 48.9606 46.1 43.2319 46.1 36.9347C46.1 30.6367 48.912 24.8578 52.0915 20.6638C53.6792 18.5696 55.3475 16.8857 56.7791 15.743C57.4956 15.1711 58.1438 14.742 58.6853 14.4645C59.2458 14.1772 59.6262 14.0868 59.8309 14.1015C60.0645 14.1183 60.4685 14.255 61.032 14.5704C61.5805 14.8773 62.2332 15.3265 62.9513 15.9088C64.3866 17.0727 66.0561 18.7463 67.6436 20.8156C70.8228 24.9599 73.6334 30.6383 73.6334 36.9347Z" fill="black" stroke="#262626"/>
<path d="M87.0726 62.2482C81.4395 65.0538 75.0593 65.0853 69.9096 64.0918C67.3381 63.5957 65.0909 62.8471 63.4189 62.0754C62.5823 61.6893 61.8988 61.3016 61.3939 60.9429C60.8731 60.5731 60.5962 60.2715 60.4983 60.0749C60.4004 59.8783 60.3265 59.4756 60.3451 58.8372C60.363 58.2181 60.4654 57.439 60.6613 56.5387C61.0528 54.7392 61.8092 52.4946 62.9625 50.1434C65.2722 45.4347 69.1414 40.3614 74.7745 37.5558C80.4083 34.7499 86.8337 34.6966 92.0058 35.6793C94.5884 36.1699 96.8399 36.9156 98.5017 37.6904C99.3333 38.0781 100.007 38.4683 100.497 38.8302C101.004 39.2048 101.255 39.5059 101.334 39.6966C101.423 39.9141 101.482 40.3376 101.451 40.9834C101.422 41.6121 101.311 42.3977 101.111 43.301C100.711 45.1068 99.9593 47.3497 98.817 49.6953C96.5295 54.3928 92.705 59.443 87.0726 62.2482Z" fill="black" stroke="#262626"/>
<path d="M32.8315 62.2482C38.4646 65.0538 44.8448 65.0853 49.9945 64.0918C52.566 63.5957 54.8132 62.8471 56.4852 62.0754C57.3219 61.6893 58.0053 61.3016 58.5102 60.9429C59.031 60.5731 59.3079 60.2715 59.4058 60.0749C59.5038 59.8783 59.5776 59.4756 59.5591 58.8372C59.5411 58.2181 59.4387 57.439 59.2429 56.5387C58.8514 54.7392 58.0949 52.4946 56.9416 50.1434C54.6319 45.4347 50.7628 40.3614 45.1296 37.5558C39.4958 34.7499 33.0704 34.6966 27.8983 35.6793C25.3157 36.1699 23.0642 36.9156 21.4024 37.6904C20.5708 38.0781 19.8974 38.4683 19.4071 38.8302C18.8998 39.2048 18.6486 39.5059 18.5701 39.6966C18.4806 39.9141 18.4225 40.3376 18.453 40.9834C18.4826 41.6121 18.593 42.3977 18.7932 43.301C19.1933 45.1068 19.9449 47.3497 21.0871 49.6953C23.3746 54.3928 27.1991 59.443 32.8315 62.2482Z" fill="black" stroke="#262626"/>
<path d="M64.249 86.9228C60.2166 82.0913 58.7103 75.8914 58.4859 70.6515C58.3738 68.035 58.5824 65.6756 58.9464 63.8704C59.1286 62.9672 59.3477 62.2126 59.5798 61.6384C59.8192 61.0462 60.0485 60.7071 60.2172 60.5663C60.3858 60.4256 60.7605 60.2606 61.3859 60.131C61.9924 60.0053 62.774 59.9247 63.6952 59.907C65.5364 59.8717 67.8951 60.0885 70.4493 60.6667C75.5646 61.8247 81.3951 64.4156 85.4275 69.2471C89.4604 74.0792 90.9984 80.3181 91.2386 85.5772C91.3585 88.2032 91.1538 90.5662 90.7844 92.3621C90.5995 93.2609 90.3757 94.0062 90.1369 94.5669C89.8898 95.1471 89.655 95.4611 89.4876 95.5816C89.2968 95.719 88.8982 95.8734 88.2628 95.9932C87.6443 96.1098 86.8545 96.1841 85.9294 96.1983C84.08 96.2266 81.7241 96.0142 79.1779 95.4454C74.0787 94.3064 68.2809 91.7536 64.249 86.9228Z" fill="black" stroke="#262626"/>
<path d="M55.7056 86.9228C59.738 82.0913 61.2443 75.8914 61.4687 70.6515C61.5808 68.035 61.3723 65.6756 61.0082 63.8704C60.8261 62.9672 60.607 62.2126 60.3748 61.6384C60.1354 61.0462 59.9061 60.7071 59.7375 60.5663C59.5688 60.4256 59.1942 60.2606 58.5687 60.131C57.9623 60.0053 57.1807 59.9247 56.2594 59.907C54.4182 59.8717 52.0596 60.0885 49.5053 60.6667C44.3901 61.8247 38.5595 64.4156 34.5271 69.2471C30.4942 74.0792 28.9563 80.3181 28.7161 85.5772C28.5961 88.2032 28.8009 90.5662 29.1703 92.3621C29.3551 93.2609 29.5789 94.0062 29.8177 94.5669C30.0648 95.1471 30.2997 95.4611 30.467 95.5816C30.6579 95.719 31.0565 95.8734 31.6918 95.9932C32.3104 96.1098 33.1001 96.1841 34.0253 96.1983C35.8746 96.2266 38.2305 96.0142 40.7767 95.4454C45.8759 94.3064 51.6738 91.7536 55.7056 86.9228Z" fill="black" stroke="#262626"/>
<path d="M69.1 44.4C69.1 48.5612 67.2294 52.3564 65.1034 55.1265C64.0425 56.5087 62.9287 57.6214 61.9753 58.3835C61.4981 58.765 61.0689 59.0524 60.7134 59.2418C60.3409 59.4402 60.1061 59.5 60 59.5C59.8939 59.5 59.6592 59.4402 59.2867 59.2418C58.9312 59.0524 58.502 58.7651 58.0247 58.3836C57.0713 57.6214 55.9575 56.5087 54.8967 55.1265C52.7707 52.3565 50.9 48.5612 50.9 44.4C50.9 40.2381 52.7714 36.4091 54.8975 33.6225C55.9585 32.2319 57.0716 31.1162 58.0232 30.3615C58.4997 29.9836 58.9266 29.7035 59.2785 29.5242C59.6493 29.3354 59.8722 29.2922 59.9644 29.2988C60.0853 29.3074 60.3317 29.3844 60.7055 29.5922C61.0644 29.7918 61.4958 30.0864 61.9738 30.4715C62.9291 31.2412 64.0435 32.3508 65.1043 33.7247C67.23 36.4781 69.1 40.2397 69.1 44.4Z" fill="black" stroke="#262626"/>
<path d="M50.9 75.6C50.9 71.4388 52.7707 67.6436 54.8966 64.8736C55.9575 63.4913 57.0713 62.3786 58.0247 61.6165C58.5019 61.235 58.9311 60.9476 59.2866 60.7582C59.6591 60.5598 59.8939 60.5 60 60.5C60.1061 60.5 60.3409 60.5598 60.7134 60.7582C61.0688 60.9476 61.4981 61.235 61.9753 61.6165C62.9287 62.3786 64.0425 63.4913 65.1033 64.8735C67.2293 67.6436 69.1 71.4388 69.1 75.6C69.1 79.762 67.2286 83.5909 65.1025 86.3776C64.0415 87.7681 62.9284 88.8839 61.9768 89.6386C61.5003 90.0164 61.0734 90.2966 60.7215 90.4758C60.3507 90.6646 60.1278 90.7079 60.0356 90.7013C59.9147 90.6926 59.6683 90.6157 59.2945 90.4078C58.9356 90.2082 58.5042 89.9136 58.0262 89.5285C57.0709 88.7588 55.9565 87.6492 54.8958 86.2753C52.77 83.5219 50.9 79.7603 50.9 75.6Z" fill="black" stroke="#262626"/>
<path d="M44.3192 68.96C46.3998 65.3563 49.9175 63.0048 53.1436 61.6689C54.7534 61.0023 56.2744 60.5956 57.4811 60.4122C58.0852 60.3205 58.6006 60.2862 59.0031 60.2999C59.4249 60.3143 59.6581 60.3799 59.75 60.433C59.8419 60.486 60.0153 60.6552 60.2387 61.0133C60.4519 61.355 60.6799 61.8185 60.9025 62.3875C61.3471 63.5243 61.7553 65.0448 61.9829 66.7723C62.439 70.2342 62.1614 74.4563 60.0809 78.06C57.9999 81.6643 54.4648 84.0447 51.2301 85.3949C49.6161 86.0686 48.0942 86.4784 46.8927 86.6561C46.2912 86.7451 45.7814 86.7743 45.387 86.7535C44.9715 86.7317 44.7568 86.6576 44.6802 86.6059C44.5798 86.5379 44.405 86.3481 44.1852 85.9812C43.9742 85.6289 43.7478 85.158 43.5264 84.5855C43.084 83.4413 42.6736 81.9232 42.442 80.203C41.9777 76.7555 42.239 72.5629 44.3192 68.96Z" fill="black" stroke="#262626"/>
<path d="M41.94 59.9193C45.5437 57.8387 49.7658 57.5611 53.2277 58.0172C54.9552 58.2448 56.4757 58.6531 57.6125 59.0977C58.1815 59.3202 58.645 59.5482 58.9867 59.7614C59.3448 59.9848 59.514 60.1582 59.567 60.2501C59.6201 60.342 59.6857 60.5752 59.7001 60.997C59.7138 61.3995 59.6796 61.9149 59.5878 62.519C59.4045 63.7258 58.9977 65.2467 58.3311 66.8565C56.9952 70.0827 54.6437 73.6003 51.04 75.6809C47.4357 77.7619 43.184 78.0558 39.7076 77.6078C37.9729 77.3842 36.4501 76.9781 35.3207 76.5313C34.7552 76.3076 34.2992 76.078 33.968 75.8628C33.619 75.6362 33.4701 75.4647 33.4298 75.3816C33.3768 75.2725 33.3203 75.0207 33.3134 74.5931C33.3068 74.1824 33.3462 73.6615 33.4407 73.055C33.6296 71.8429 34.0333 70.3229 34.6928 68.7174C36.0145 65.4997 38.3371 61.9994 41.94 59.9193Z" fill="black" stroke="#262626"/>
<path d="M44.4001 50.9C48.5612 50.9 52.3565 52.7707 55.1265 54.8967C56.5087 55.9575 57.6214 57.0713 58.3836 58.0247C58.7651 58.5019 59.0525 58.9312 59.2418 59.2867C59.4403 59.6592 59.5001 59.8939 59.5001 60C59.5001 60.1061 59.4403 60.3409 59.2418 60.7134C59.0525 61.0689 58.7651 61.4981 58.3836 61.9753C57.6214 62.9287 56.5087 64.0425 55.1265 65.1034C52.3565 67.2293 48.5612 69.1 44.4001 69.1C40.2381 69.1 36.4091 67.2287 33.6225 65.1025C32.232 64.0415 31.1162 62.9284 30.3615 61.9768C29.9836 61.5004 29.7035 61.0734 29.5243 60.7215C29.3354 60.3507 29.2922 60.1278 29.2988 60.0356C29.3074 59.9147 29.3844 59.6684 29.5923 59.2946C29.7918 58.9356 30.0864 58.5042 30.4716 58.0262C31.2412 57.071 32.3508 55.9565 33.7247 54.8958C36.4782 52.77 40.2397 50.9 44.4001 50.9Z" fill="black" stroke="#262626"/>
<path d="M51.0401 44.3192C54.6437 46.3998 56.9952 49.9175 58.3311 53.1436C58.9977 54.7534 59.4045 56.2744 59.5878 57.4811C59.6796 58.0852 59.7138 58.6006 59.7001 59.0031C59.6857 59.4249 59.6201 59.6581 59.567 59.75C59.514 59.8419 59.3448 60.0153 58.9867 60.2387C58.645 60.4519 58.1815 60.6799 57.6125 60.9025C56.4757 61.3471 54.9552 61.7553 53.2278 61.9829C49.7659 62.439 45.5437 62.1614 41.9401 60.0809C38.3357 57.9999 35.9554 54.4648 34.6052 51.2301C33.9314 49.6161 33.5217 48.0942 33.3439 46.8927C33.2549 46.2912 33.2258 45.7814 33.2465 45.387C33.2683 44.9714 33.3424 44.7568 33.3942 44.6802C33.4621 44.5798 33.652 44.405 34.0189 44.1852C34.3712 43.9741 34.842 43.7478 35.4145 43.5264C36.5587 43.084 38.0769 42.6736 39.7971 42.442C43.2445 41.9777 47.4371 42.239 51.0401 44.3192Z" fill="black" stroke="#262626"/>
<path d="M60.0809 41.9401C62.1615 45.5437 62.4391 49.7659 61.9829 53.2278C61.7553 54.9552 61.3471 56.4757 60.9025 57.6125C60.68 58.1815 60.4519 58.645 60.2388 58.9867C60.0154 59.3448 59.842 59.514 59.7501 59.5671C59.6582 59.6201 59.425 59.6857 59.0032 59.7001C58.6006 59.7139 58.0852 59.6796 57.4812 59.5878C56.2744 59.4045 54.7535 58.9977 53.1437 58.3311C49.9175 56.9952 46.3998 54.6437 44.3193 51.0401C42.2383 47.4357 41.9444 43.184 42.3924 39.7077C42.616 37.973 43.0221 36.4501 43.4688 35.3207C43.6925 34.7553 43.9222 34.2992 44.1373 33.968C44.364 33.6191 44.5355 33.4702 44.6186 33.4298C44.7277 33.3768 44.9795 33.3203 45.4071 33.3134C45.8177 33.3068 46.3387 33.3462 46.9452 33.4407C48.1573 33.6297 49.6772 34.0334 51.2828 34.6929C54.5005 36.0145 58.0008 38.3371 60.0809 41.9401Z" fill="black" stroke="#262626"/>
<path d="M69.1 44.4C69.1 48.5612 67.2294 52.3564 65.1034 55.1265C64.0425 56.5087 62.9287 57.6214 61.9753 58.3835C61.4981 58.765 61.0689 59.0524 60.7134 59.2418C60.3409 59.4402 60.1061 59.5 60 59.5C59.8939 59.5 59.6592 59.4402 59.2867 59.2418C58.9312 59.0524 58.502 58.7651 58.0247 58.3836C57.0713 57.6214 55.9575 56.5087 54.8967 55.1265C52.7707 52.3565 50.9 48.5612 50.9 44.4C50.9 40.2381 52.7714 36.4091 54.8975 33.6225C55.9585 32.2319 57.0716 31.1162 58.0232 30.3615C58.4997 29.9836 58.9266 29.7035 59.2785 29.5242C59.6493 29.3354 59.8722 29.2922 59.9644 29.2988C60.0853 29.3074 60.3317 29.3844 60.7055 29.5922C61.0644 29.7918 61.4958 30.0864 61.9738 30.4715C62.9291 31.2412 64.0435 32.3508 65.1043 33.7247C67.23 36.4781 69.1 40.2397 69.1 44.4Z" fill="black" stroke="#262626"/>
<path d="M75.6809 51.0401C73.6003 54.6437 70.0826 56.9952 66.8565 58.3311C65.2466 58.9977 63.7257 59.4045 62.5189 59.5878C61.9149 59.6796 61.3995 59.7138 60.9969 59.7001C60.5751 59.6857 60.3419 59.6201 60.25 59.567C60.1581 59.514 59.9847 59.3448 59.7614 58.9867C59.5482 58.645 59.3202 58.1815 59.0976 57.6125C58.653 56.4757 58.2448 54.9552 58.0172 53.2278C57.561 49.7659 57.8386 45.5437 59.9192 41.9401C62.0002 38.3357 65.5353 35.9554 68.7699 34.6052C70.384 33.9314 71.9059 33.5217 73.1073 33.3439C73.7089 33.2549 74.2187 33.2258 74.6131 33.2465C75.0286 33.2683 75.2433 33.3424 75.3198 33.3942C75.4202 33.4621 75.5951 33.652 75.8149 34.0189C76.0259 34.3712 76.2522 34.842 76.4736 35.4145C76.9161 36.5587 77.3264 38.0769 77.5581 39.7971C78.0224 43.2445 77.761 47.4371 75.6809 51.0401Z" fill="black" stroke="#262626"/>
<path d="M78.06 60.0809C74.4563 62.1615 70.2342 62.439 66.7723 61.9829C65.0448 61.7553 63.5243 61.3471 62.3875 60.9025C61.8185 60.6799 61.355 60.4519 61.0133 60.2387C60.6552 60.0153 60.486 59.8419 60.433 59.75C60.3799 59.6582 60.3143 59.4249 60.2999 59.0031C60.2862 58.6006 60.3204 58.0852 60.4122 57.4812C60.5956 56.2744 61.0023 54.7535 61.6689 53.1436C63.0048 49.9175 65.3563 46.3998 68.96 44.3192C72.5643 42.2382 76.816 41.9444 80.2924 42.3924C82.0271 42.6159 83.5499 43.022 84.6793 43.4688C85.2448 43.6925 85.7008 43.9222 86.032 44.1373C86.381 44.364 86.5299 44.5355 86.5702 44.6186C86.6232 44.7276 86.6797 44.9795 86.6866 45.4071C86.6932 45.8177 86.6538 46.3386 86.5593 46.9452C86.3704 48.1573 85.9667 49.6772 85.3072 51.2828C83.9855 54.5005 81.6629 58.0007 78.06 60.0809Z" fill="black" stroke="#262626"/>
<path d="M75.5999 69.1C71.4388 69.1 67.6435 67.2294 64.8735 65.1034C63.4913 64.0425 62.3786 62.9287 61.6164 61.9753C61.2349 61.4981 60.9475 61.0689 60.7582 60.7134C60.5597 60.3409 60.4999 60.1061 60.4999 60C60.4999 59.8939 60.5597 59.6592 60.7582 59.2867C60.9475 58.9312 61.2349 58.502 61.6164 58.0247C62.3786 57.0713 63.4913 55.9575 64.8735 54.8967C67.6435 52.7707 71.4388 50.9 75.5999 50.9C79.7619 50.9 83.5909 52.7714 86.3775 54.8975C87.768 55.9585 88.8838 57.0716 89.6385 58.0232C90.0164 58.4997 90.2965 58.9266 90.4757 59.2785C90.6646 59.6493 90.7078 59.8722 90.7012 59.9644C90.6926 60.0853 90.6156 60.3317 90.4077 60.7055C90.2082 61.0644 89.9136 61.4958 89.5284 61.9738C88.7588 62.9291 87.6492 64.0435 86.2753 65.1043C83.5218 67.23 79.7603 69.1 75.5999 69.1Z" fill="black" stroke="#262626"/>
<path d="M68.9599 75.6808C65.3563 73.6002 63.0048 70.0826 61.6689 66.8564C61.0023 65.2466 60.5955 63.7257 60.4122 62.5189C60.3204 61.9148 60.2862 61.3994 60.2999 60.9969C60.3143 60.5751 60.3799 60.3419 60.4329 60.25C60.486 60.1581 60.6552 59.9847 61.0133 59.7613C61.355 59.5481 61.8185 59.3201 62.3875 59.0976C63.5243 58.6529 65.0448 58.2447 66.7722 58.0171C70.2341 57.561 74.4563 57.8386 78.0599 59.9192C81.6643 62.0001 84.0446 65.5353 85.3948 68.7699C86.0686 70.384 86.4783 71.9059 86.6561 73.1073C86.7451 73.7089 86.7742 74.2186 86.7535 74.613C86.7317 75.0286 86.6576 75.2432 86.6058 75.3198C86.5379 75.4202 86.348 75.595 85.9811 75.8148C85.6288 76.0259 85.158 76.2522 84.5855 76.4736C83.4413 76.916 81.9231 77.3264 80.2029 77.558C76.7555 78.0223 72.5629 77.761 68.9599 75.6808Z" fill="black" stroke="#262626"/>
<path d="M59.9192 78.06C57.8386 74.4563 57.561 70.2342 58.0172 66.7723C58.2448 65.0448 58.653 63.5243 59.0976 62.3875C59.3201 61.8185 59.5482 61.355 59.7613 61.0133C59.9847 60.6552 60.1581 60.486 60.25 60.433C60.3419 60.3799 60.5751 60.3143 60.9969 60.2999C61.3995 60.2862 61.9149 60.3205 62.5189 60.4122C63.7257 60.5956 65.2466 61.0023 66.8564 61.6689C70.0826 63.0048 73.6003 65.3563 75.6809 68.96C77.7618 72.5643 78.0557 76.816 77.6077 80.2924C77.3841 82.0271 76.978 83.5499 76.5313 84.6793C76.3076 85.2448 76.0779 85.7008 75.8628 86.032C75.6361 86.381 75.4646 86.5299 75.3815 86.5702C75.2725 86.6232 75.0206 86.6797 74.593 86.6866C74.1824 86.6932 73.6614 86.6538 73.0549 86.5593C71.8428 86.3704 70.3229 85.9667 68.7173 85.3072C65.4996 83.9855 61.9994 81.6629 59.9192 78.06Z" fill="black" stroke="#262626"/>
<mask id="mask1" mask-type="alpha" maskUnits="userSpaceOnUse" x="57" y="59" width="22" height="29">
<path d="M59.9192 78.06C57.8386 74.4563 57.561 70.2342 58.0172 66.7723C58.2448 65.0448 58.653 63.5243 59.0976 62.3875C59.3201 61.8185 59.5482 61.355 59.7613 61.0133C59.9847 60.6552 60.1581 60.486 60.25 60.433C60.3419 60.3799 60.5751 60.3143 60.9969 60.2999C61.3995 60.2862 61.9149 60.3205 62.5189 60.4122C63.7257 60.5956 65.2466 61.0023 66.8564 61.6689C70.0826 63.0048 73.6003 65.3563 75.6809 68.96C77.7618 72.5643 78.0557 76.816 77.6077 80.2924C77.3841 82.0271 76.978 83.5499 76.5313 84.6793C76.3076 85.2448 76.0779 85.7008 75.8628 86.032C75.6361 86.381 75.4646 86.5299 75.3815 86.5702C75.2725 86.6232 75.0206 86.6797 74.593 86.6866C74.1824 86.6932 73.6614 86.6538 73.0549 86.5593C71.8428 86.3704 70.3229 85.9667 68.7173 85.3072C65.4996 83.9855 61.9994 81.6629 59.9192 78.06Z" fill="black" stroke="white"/>
</mask>
<g mask="url(#mask1)">
<path d="M50.9001 75.6001C50.9001 71.4389 52.7707 67.6437 54.8967 64.8737C55.9575 63.4914 57.0713 62.3787 58.0248 61.6166C58.502 61.2351 58.9312 60.9477 59.2867 60.7583C59.6592 60.5599 59.8939 60.5001 60.0001 60.5001C60.1062 60.5001 60.3409 60.5599 60.7134 60.7583C61.0689 60.9477 61.4981 61.2351 61.9753 61.6166C62.9288 62.3787 64.0426 63.4914 65.1034 64.8736C67.2294 67.6437 69.1 71.4389 69.1 75.6001C69.1 79.7621 67.2287 83.591 65.1025 86.3777C64.0416 87.7682 62.9285 88.884 61.9769 89.6387C61.5004 90.0165 61.0735 90.2966 60.7216 90.4759C60.3508 90.6647 60.1278 90.7079 60.0357 90.7014C59.9147 90.6927 59.6684 90.6157 59.2946 90.4079C58.9357 90.2083 58.5043 89.9137 58.0263 89.5286C57.071 88.7589 55.9566 87.6493 54.8958 86.2754C52.77 83.522 50.9001 79.7604 50.9001 75.6001Z" fill="black" stroke="#262626"/>
<path d="M44.3192 68.9601C46.3998 65.3564 49.9175 63.0049 53.1436 61.669C54.7534 61.0024 56.2744 60.5957 57.4811 60.4123C58.0852 60.3206 58.6006 60.2863 59.0031 60.3C59.4249 60.3144 59.6581 60.38 59.75 60.4331C59.8419 60.4861 60.0153 60.6553 60.2387 61.0134C60.4519 61.3551 60.6799 61.8186 60.9025 62.3876C61.3471 63.5244 61.7553 65.0449 61.9829 66.7724C62.439 70.2343 62.1614 74.4564 60.0809 78.0601C57.9999 81.6644 54.4648 84.0447 51.2301 85.395C49.6161 86.0687 48.0942 86.4784 46.8927 86.6562C46.2912 86.7452 45.7814 86.7744 45.387 86.7536C44.9715 86.7318 44.7568 86.6577 44.6802 86.606C44.5798 86.538 44.405 86.3482 44.1852 85.9813C43.9742 85.629 43.7478 85.1581 43.5264 84.5856C43.084 83.4414 42.6736 81.9233 42.442 80.203C41.9777 76.7556 42.239 72.563 44.3192 68.9601Z" fill="black" stroke="#262626"/>
<path d="M41.9401 59.9194C45.5438 57.8388 49.7659 57.5612 53.2278 58.0173C54.9552 58.2449 56.4758 58.6532 57.6125 59.0978C58.1815 59.3203 58.645 59.5483 58.9868 59.7615C59.3449 59.9849 59.514 60.1583 59.5671 60.2502C59.6201 60.3421 59.6857 60.5753 59.7001 60.9971C59.7139 61.3996 59.6796 61.915 59.5879 62.5191C59.4045 63.7258 58.9978 65.2468 58.3312 66.8566C56.9952 70.0828 54.6438 73.6004 51.0401 75.681C47.4357 77.762 43.1841 78.0559 39.7077 77.6079C37.973 77.3843 36.4501 76.9782 35.3208 76.5314C34.7553 76.3077 34.2992 76.0781 33.968 75.8629C33.6191 75.6363 33.4702 75.4648 33.4298 75.3817C33.3768 75.2726 33.3203 75.0208 33.3134 74.5931C33.3068 74.1825 33.3462 73.6616 33.4408 73.0551C33.6297 71.843 34.0334 70.323 34.6929 68.7175C36.0145 65.4998 38.3371 61.9995 41.9401 59.9194Z" fill="black" stroke="#262626"/>
</g>
<circle cx="60" cy="60" r="6.16666" fill="black" stroke="#262626"/>
</svg>
