<svg width="24" height="24" viewBox="0 0 24 24" fill="none" xmlns="http://www.w3.org/2000/svg">
<path fill-rule="evenodd" clip-rule="evenodd" d="M5.6949 9.14737C7.00716 7.83027 9.06519 6.5 12 6.5C14.9348 6.5 16.9928 7.83027 18.3051 9.14737C18.9598 9.8045 19.432 10.4607 19.7411 10.9535C19.8959 11.2003 20.0105 11.4072 20.0873 11.5543C20.1257 11.6279 20.1547 11.6867 20.1746 11.7281C20.1845 11.7488 20.1922 11.7652 20.1976 11.777L20.2041 11.7911L20.206 11.7955L20.2067 11.797L20.207 11.7976C20.2071 11.7979 20.2072 11.7981 19.75 12.0005C20.2072 12.203 20.2071 12.2033 20.207 12.2035L20.2067 12.2041L20.206 12.2056L20.204 12.21L20.1976 12.2241C20.1922 12.2359 20.1845 12.2523 20.1746 12.273C20.1547 12.3144 20.1257 12.3731 20.0873 12.4467C20.0105 12.5938 19.8959 12.8007 19.7411 13.0475C19.4319 13.5401 18.9598 14.1962 18.3051 14.8532C16.9928 16.17 14.9348 17.5 12 17.5C9.06523 17.5 7.00721 16.17 5.69494 14.8532C5.04022 14.1962 4.56807 13.5401 4.25895 13.0475C4.10414 12.8007 3.9895 12.5938 3.91271 12.4467C3.8743 12.3731 3.8453 12.3144 3.82542 12.273C3.81549 12.2523 3.80783 12.2359 3.80241 12.2241L3.79595 12.21L3.79398 12.2056L3.7933 12.2041L3.79304 12.2035C3.79293 12.2033 3.79283 12.203 4.25 12.0005C3.79282 11.7981 3.79292 11.7979 3.79303 11.7976L3.79329 11.797L3.79396 11.7955L3.79594 11.7911L3.80239 11.777C3.80781 11.7652 3.81547 11.7488 3.82541 11.7281C3.84528 11.6867 3.87428 11.6279 3.91269 11.5543C3.98948 11.4072 4.10411 11.2003 4.25892 10.9535C4.56804 10.4607 5.04019 9.8045 5.6949 9.14737ZM4.25 12.0005L3.79282 11.7981C3.73572 11.927 3.73573 12.0741 3.79283 12.203L4.25 12.0005ZM4.80786 12.0005C4.87389 12.1261 4.97269 12.3035 5.10601 12.516C5.38506 12.9607 5.81246 13.5545 6.40327 14.1473C7.58208 15.3302 9.39905 16.5 12 16.5C14.6009 16.5 16.4179 15.3302 17.5967 14.1473C18.1875 13.5545 18.6149 12.9607 18.894 12.516C19.0273 12.3035 19.1261 12.1261 19.1921 12.0005C19.1261 11.8749 19.0273 11.6975 18.894 11.4849C18.6149 11.0401 18.1875 10.4462 17.5967 9.85317C16.4179 8.67 14.6009 7.5 12 7.5C9.39909 7.5 7.58213 8.67 6.40331 9.85317C5.81249 10.4462 5.38509 11.0401 5.10604 11.4849C4.9727 11.6975 4.8739 11.8749 4.80786 12.0005ZM19.75 12.0005L20.2072 12.203C20.2643 12.0741 20.2643 11.927 20.2072 11.7981L19.75 12.0005Z" fill="white"/>
<path fill-rule="evenodd" clip-rule="evenodd" d="M2.18764 2.60956C2.40327 2.43706 2.71792 2.47202 2.89042 2.68765L4.89042 5.18765C5.06293 5.40328 5.02797 5.71793 4.81234 5.89043C4.5967 6.06294 4.28206 6.02798 4.10955 5.81235L2.10955 3.31235C1.93705 3.09672 1.97201 2.78207 2.18764 2.60956Z" fill="white"/>
<path fill-rule="evenodd" clip-rule="evenodd" d="M21.8124 2.60956C21.5967 2.43706 21.2821 2.47202 21.1096 2.68765L19.1096 5.18765C18.9371 5.40328 18.972 5.71793 19.1877 5.89043C19.4033 6.06294 19.7179 6.02798 19.8904 5.81235L21.8904 3.31235C22.063 3.09672 22.028 2.78207 21.8124 2.60956Z" fill="white"/>
<path fill-rule="evenodd" clip-rule="evenodd" d="M2.18764 21.3904C2.40327 21.5629 2.71792 21.528 2.89042 21.3123L4.89042 18.8123C5.06293 18.5967 5.02797 18.2821 4.81234 18.1096C4.5967 17.9371 4.28206 17.972 4.10955 18.1877L2.10955 20.6877C1.93705 20.9033 1.97201 21.2179 2.18764 21.3904Z" fill="white"/>
<path fill-rule="evenodd" clip-rule="evenodd" d="M21.8124 21.3904C21.5967 21.5629 21.2821 21.528 21.1096 21.3123L19.1096 18.8123C18.9371 18.5967 18.972 18.2821 19.1877 18.1096C19.4033 17.9371 19.7179 17.972 19.8904 18.1877L21.8904 20.6877C22.063 20.9033 22.028 21.2179 21.8124 21.3904Z" fill="white"/>
<path fill-rule="evenodd" clip-rule="evenodd" d="M12 9.75C10.7574 9.75 9.75 10.7574 9.75 12C9.75 13.2426 10.7574 14.25 12 14.25C13.2426 14.25 14.25 13.2426 14.25 12C14.25 10.7574 13.2426 9.75 12 9.75ZM8.75 12C8.75 10.2051 10.2051 8.75 12 8.75C13.7949 8.75 15.25 10.2051 15.25 12C15.25 13.7949 13.7949 15.25 12 15.25C10.2051 15.25 8.75 13.7949 8.75 12Z" fill="white"/>
</svg>
