<svg width="18" height="22" viewBox="0 0 18 22" fill="none" xmlns="http://www.w3.org/2000/svg">
<path fill-rule="evenodd" clip-rule="evenodd" d="M0.5 20C0.5 21.1046 1.39543 22 2.5 22H15.5C16.6046 22 17.5 21.1046 17.5 20L15 2C15 0.89543 14.1046 0 13 0H5C3.89543 0 3 0.89543 3 2L0.5 20ZM16.0043 16.5L14.0095 2.13757C14.0032 2.09199 14 2.04602 14 2C14 1.44772 13.5523 1 13 1H5C4.44772 1 4 1.44772 4 2C4 2.04602 3.99682 2.09199 3.99049 2.13757L1.99571 16.5H6.55009C6.64301 16.0427 6.86077 15.6305 7.16575 15.3013C7.51402 14.9254 7.97749 14.6562 8.5 14.5501V9.43699C7.63739 9.21497 7 8.43192 7 7.5C7 6.56808 7.63739 5.78503 8.5 5.56301V3.50085L9.5 3.50002V5.56301C10.3626 5.78503 11 6.56808 11 7.5C11 8.43192 10.3626 9.21497 9.5 9.43699V14.55C10.4796 14.7488 11.2512 15.5204 11.45 16.5H16.0043ZM11.45 17.5C11.2184 18.6411 10.2095 19.5 9 19.5C7.79052 19.5 6.78164 18.6411 6.55001 17.5H1.85682L1.50162 20.0574C1.53138 20.583 1.96699 21 2.5 21H15.5C16.033 21 16.4686 20.583 16.4984 20.0574L16.1432 17.5H11.45ZM9 18.5C9.82843 18.5 10.5 17.8284 10.5 17C10.5 16.1716 9.82843 15.5 9 15.5C8.56506 15.5 8.17397 15.6845 7.89932 15.9809C7.65107 16.2489 7.5 16.6062 7.5 17C7.5 17.8284 8.17157 18.5 9 18.5ZM9 8.5C9.55229 8.5 10 8.05229 10 7.5C10 6.94772 9.55229 6.5 9 6.5C8.44772 6.5 8 6.94772 8 7.5C8 8.05229 8.44772 8.5 9 8.5Z" fill="#1C1C1C"/>
</svg>
