<svg width="252" height="243" viewBox="0 0 252 243" fill="none" xmlns="http://www.w3.org/2000/svg">
<path fill-rule="evenodd" clip-rule="evenodd" d="M135 1H126C61.935 1 10 52.935 10 117V126C10 190.065 61.935 242 126 242H135C199.065 242 251 190.065 251 126V117C251 52.935 199.065 1 135 1ZM126 0C61.3827 0 9 52.3827 9 117V126C9 190.617 61.3827 243 126 243H135C199.617 243 252 190.617 252 126V117C252 52.3827 199.617 0 135 0H126Z" fill="url(#paint0_linear)" fill-opacity="0.5"/>
<mask id="mask0" mask-type="alpha" maskUnits="userSpaceOnUse" x="10" y="1" width="241" height="241">
<path d="M10.0947 118.094C10.0947 53.4771 62.4774 1.09448 127.095 1.09448H133.906C198.523 1.09448 250.906 53.4772 250.906 118.094V124.905C250.906 189.523 198.523 241.905 133.906 241.905H127.095C62.4773 241.905 10.0947 189.523 10.0947 124.905V118.094Z" fill="url(#paint1_diamond)"/>
</mask>
<g mask="url(#mask0)">
<path fill-rule="evenodd" clip-rule="evenodd" d="M-107.35 172.312C-119.614 167.117 -133.433 161.953 -149.716 161.953V160.953C-133.221 160.953 -119.246 166.187 -106.96 171.391C-105.415 172.046 -103.897 172.699 -102.406 173.342C-97.9579 175.257 -93.7388 177.074 -89.6817 178.53C-84.2686 180.472 -79.1927 181.75 -74.3256 181.75C-69.4585 181.75 -64.3826 180.472 -58.9695 178.53C-54.9125 177.074 -50.6934 175.257 -46.2456 173.342C-44.754 172.699 -43.2366 172.046 -41.6911 171.391C-29.4053 166.187 -15.4306 160.953 1.06459 160.953C17.5598 160.953 31.5345 166.187 43.8203 171.391C45.3658 172.046 46.8832 172.699 48.3748 173.342C52.8226 175.257 57.0416 177.074 61.0987 178.53C66.5118 180.472 71.5877 181.75 76.4548 181.75C81.3219 181.75 86.3978 180.472 91.8109 178.53C95.8679 177.074 100.087 175.257 104.535 173.342C106.026 172.699 107.544 172.046 109.089 171.391C121.375 166.187 135.35 160.953 151.845 160.953C168.34 160.953 182.315 166.187 194.601 171.391C196.146 172.045 197.663 172.699 199.155 173.341C203.603 175.257 207.822 177.074 211.879 178.53C217.292 180.472 222.368 181.75 227.235 181.75C232.102 181.75 237.178 180.472 242.591 178.53C246.648 177.074 250.867 175.257 255.315 173.342C256.807 172.699 258.324 172.046 259.87 171.391C272.156 166.187 286.13 160.953 302.625 160.953C319.121 160.953 333.095 166.187 345.381 171.391C346.927 172.046 348.444 172.699 349.936 173.342C354.383 175.257 358.602 177.074 362.66 178.53C368.073 180.472 373.148 181.75 378.016 181.75C382.883 181.75 387.959 180.472 393.372 178.53C397.429 177.074 401.648 175.257 406.095 173.342C407.587 172.699 409.105 172.046 410.65 171.391C422.936 166.187 436.911 160.953 453.406 160.953V161.953C437.123 161.953 423.304 167.117 411.04 172.312C409.509 172.96 408.001 173.61 406.515 174.25C402.059 176.169 397.798 178.004 393.709 179.471C388.252 181.429 383.05 182.75 378.016 182.75C372.981 182.75 367.779 181.429 362.322 179.471C358.233 178.004 353.973 176.169 349.517 174.25C348.03 173.61 346.522 172.96 344.991 172.312C332.727 167.117 318.909 161.953 302.625 161.953C286.342 161.953 272.524 167.117 260.26 172.312C258.729 172.96 257.221 173.61 255.734 174.25C251.278 176.169 247.018 178.004 242.929 179.471C237.471 181.429 232.27 182.75 227.235 182.75C222.201 182.75 216.999 181.429 211.541 179.471C207.452 178.004 203.192 176.169 198.736 174.25C197.25 173.61 195.742 172.96 194.211 172.312C181.947 167.117 168.128 161.953 151.845 161.953C135.562 161.953 121.743 167.117 109.479 172.312C107.948 172.96 106.44 173.61 104.954 174.25C100.498 176.169 96.2376 178.004 92.1485 179.471C86.691 181.429 81.4895 182.75 76.4548 182.75C71.4201 182.75 66.2186 181.429 60.7611 179.471C56.672 178.004 52.4118 176.169 47.9556 174.25C46.4693 173.61 44.9611 172.96 43.4302 172.312C31.1664 167.117 17.3477 161.953 1.06459 161.953C-15.2186 161.953 -29.0372 167.117 -41.301 172.312C-42.8319 172.96 -44.34 173.61 -45.8264 174.25C-50.2826 176.169 -54.5428 178.004 -58.6319 179.471C-64.0894 181.429 -69.2909 182.75 -74.3256 182.75C-79.3603 182.75 -84.5618 181.429 -90.0193 179.471C-94.1084 178.004 -98.3686 176.169 -102.825 174.25C-104.311 173.61 -105.819 172.96 -107.35 172.312Z" fill="white"/>
<path fill-rule="evenodd" clip-rule="evenodd" d="M-107.351 188.731C-119.615 183.536 -133.433 178.372 -149.716 178.372V177.372C-133.221 177.372 -119.246 182.606 -106.961 187.81C-105.415 188.464 -103.898 189.118 -102.406 189.76C-97.9583 191.676 -93.7393 193.493 -89.6822 194.949C-84.2691 196.89 -79.1932 198.169 -74.3261 198.169C-69.459 198.169 -64.3831 196.89 -58.97 194.949C-54.9129 193.493 -50.6939 191.676 -46.2461 189.76C-44.7545 189.118 -43.2371 188.464 -41.6916 187.81C-29.4058 182.606 -15.4311 177.372 1.0641 177.372C17.5593 177.372 31.534 182.606 43.8198 187.81C45.3653 188.465 46.8827 189.118 48.3743 189.76C52.8221 191.676 57.0412 193.493 61.0982 194.949C66.5114 196.89 71.5872 198.169 76.4543 198.169C81.3214 198.169 86.3973 196.89 91.8104 194.949C95.8674 193.493 100.086 191.676 104.534 189.761C106.026 189.118 107.543 188.465 109.089 187.81C121.375 182.606 135.349 177.372 151.845 177.372C168.34 177.372 182.314 182.606 194.6 187.81C196.146 188.464 197.663 189.118 199.154 189.76C203.602 191.676 207.821 193.493 211.879 194.949C217.292 196.89 222.368 198.169 227.235 198.169C232.102 198.169 237.178 196.89 242.591 194.949C246.648 193.493 250.867 191.676 255.315 189.76C256.806 189.118 258.324 188.465 259.869 187.81C272.155 182.606 286.13 177.372 302.625 177.372C319.12 177.372 333.095 182.606 345.381 187.81C346.926 188.465 348.443 189.118 349.935 189.76C354.383 191.676 358.602 193.493 362.659 194.949C368.072 196.89 373.148 198.169 378.015 198.169C382.882 198.169 387.958 196.89 393.371 194.949C397.428 193.493 401.647 191.676 406.095 189.761C407.587 189.118 409.104 188.465 410.65 187.81C422.935 182.606 436.91 177.372 453.405 177.372V178.372C437.122 178.372 423.304 183.536 411.04 188.731C409.509 189.379 408.001 190.029 406.514 190.669C402.058 192.588 397.798 194.423 393.709 195.89C388.251 197.848 383.05 199.169 378.015 199.169C372.98 199.169 367.779 197.848 362.321 195.89C358.232 194.423 353.972 192.588 349.516 190.669C348.03 190.029 346.521 189.379 344.991 188.731C332.727 183.536 318.908 178.372 302.625 178.372C286.342 178.372 272.523 183.536 260.259 188.731C258.728 189.379 257.22 190.029 255.734 190.669C251.278 192.588 247.018 194.423 242.928 195.89C237.471 197.848 232.269 199.169 227.235 199.169C222.2 199.169 216.999 197.848 211.541 195.89C207.452 194.423 203.192 192.588 198.736 190.669C197.249 190.029 195.741 189.379 194.21 188.731C181.946 183.536 168.128 178.372 151.845 178.372C135.561 178.372 121.743 183.536 109.479 188.731C107.948 189.379 106.44 190.029 104.953 190.669C100.497 192.588 96.2371 194.423 92.148 195.89C86.6905 197.848 81.489 199.169 76.4543 199.169C71.4196 199.169 66.2181 197.848 60.7606 195.89C56.6715 194.423 52.4113 192.588 47.9551 190.669C46.4688 190.029 44.9606 189.379 43.4297 188.731C31.1659 183.536 17.3472 178.372 1.0641 178.372C-15.219 178.372 -29.0377 183.536 -41.3015 188.731C-42.8324 189.379 -44.3405 190.029 -45.8269 190.669C-50.2831 192.588 -54.5433 194.423 -58.6324 195.89C-64.0899 197.848 -69.2914 199.169 -74.3261 199.169C-79.3608 199.169 -84.5623 197.848 -90.0198 195.89C-94.1089 194.423 -98.3691 192.588 -102.825 190.669C-104.312 190.029 -105.82 189.379 -107.351 188.731Z" fill="white" fill-opacity="0.6"/>
<path fill-rule="evenodd" clip-rule="evenodd" d="M-107.351 202.96C-119.615 197.766 -133.433 192.601 -149.716 192.601V191.601C-133.221 191.601 -119.246 196.835 -106.961 202.039C-105.415 202.694 -103.898 203.348 -102.406 203.99C-97.9583 205.906 -93.7393 207.723 -89.6822 209.178C-84.2691 211.12 -79.1932 212.398 -74.3261 212.398C-69.459 212.398 -64.3831 211.12 -58.97 209.178C-54.9129 207.723 -50.6939 205.906 -46.2461 203.99C-44.7545 203.348 -43.2371 202.694 -41.6916 202.039C-29.4058 196.835 -15.4311 191.601 1.0641 191.601C17.5593 191.601 31.534 196.835 43.8198 202.039C45.3653 202.694 46.8827 203.348 48.3743 203.99C52.8221 205.906 57.0412 207.723 61.0982 209.178C66.5114 211.12 71.5872 212.398 76.4543 212.398C81.3214 212.398 86.3973 211.12 91.8104 209.178C95.8674 207.723 100.086 205.906 104.534 203.99C106.026 203.348 107.543 202.694 109.089 202.039C121.375 196.835 135.349 191.601 151.845 191.601C168.34 191.601 182.314 196.835 194.6 202.039C196.146 202.694 197.663 203.348 199.154 203.99C203.602 205.906 207.821 207.723 211.879 209.178C217.292 211.12 222.368 212.398 227.235 212.398C232.102 212.398 237.178 211.12 242.591 209.178C246.648 207.723 250.867 205.906 255.315 203.99C256.806 203.348 258.324 202.694 259.869 202.039C272.155 196.835 286.13 191.601 302.625 191.601C319.12 191.601 333.095 196.835 345.381 202.039C346.926 202.694 348.443 203.348 349.935 203.99C354.383 205.906 358.602 207.723 362.659 209.178C368.072 211.12 373.148 212.398 378.015 212.398C382.882 212.398 387.958 211.12 393.371 209.178C397.428 207.723 401.647 205.906 406.095 203.99C407.587 203.348 409.104 202.694 410.65 202.039C422.935 196.835 436.91 191.601 453.405 191.601V192.601C437.122 192.601 423.304 197.766 411.04 202.96C409.509 203.609 408.001 204.258 406.514 204.898C402.058 206.818 397.798 208.653 393.709 210.12C388.251 212.077 383.05 213.398 378.015 213.398C372.98 213.398 367.779 212.077 362.321 210.12C358.232 208.653 353.972 206.818 349.516 204.899C348.03 204.258 346.521 203.609 344.991 202.96C332.727 197.766 318.908 192.601 302.625 192.601C286.342 192.601 272.523 197.766 260.259 202.96C258.728 203.609 257.22 204.258 255.734 204.898C251.278 206.818 247.018 208.653 242.928 210.12C237.471 212.077 232.269 213.398 227.235 213.398C222.2 213.398 216.999 212.077 211.541 210.12C207.452 208.653 203.192 206.818 198.736 204.898C197.249 204.258 195.741 203.609 194.21 202.96C181.946 197.766 168.128 192.601 151.845 192.601C135.561 192.601 121.743 197.766 109.479 202.96C107.948 203.609 106.44 204.258 104.953 204.898C100.497 206.818 96.2371 208.653 92.148 210.12C86.6905 212.077 81.489 213.398 76.4543 213.398C71.4196 213.398 66.2181 212.077 60.7606 210.12C56.6715 208.653 52.4113 206.818 47.9551 204.898C46.4688 204.258 44.9606 203.609 43.4297 202.96C31.1659 197.766 17.3472 192.601 1.0641 192.601C-15.219 192.601 -29.0377 197.766 -41.3015 202.96C-42.8324 203.609 -44.3405 204.258 -45.8269 204.898C-50.2831 206.818 -54.5433 208.653 -58.6324 210.12C-64.0899 212.077 -69.2914 213.398 -74.3261 213.398C-79.3608 213.398 -84.5623 212.077 -90.0198 210.12C-94.1089 208.653 -98.3691 206.818 -102.825 204.898C-104.312 204.258 -105.82 203.609 -107.351 202.96Z" fill="white" fill-opacity="0.4"/>
<path fill-rule="evenodd" clip-rule="evenodd" d="M-107.351 217.19C-119.615 211.995 -133.433 206.831 -149.716 206.831V205.831C-133.221 205.831 -119.246 211.065 -106.961 216.269C-105.415 216.924 -103.898 217.577 -102.406 218.22C-97.9583 220.135 -93.7393 221.953 -89.6822 223.408C-84.2691 225.35 -79.1932 226.628 -74.3261 226.628C-69.459 226.628 -64.3831 225.35 -58.97 223.408C-54.9129 221.953 -50.6939 220.135 -46.2461 218.22C-44.7545 217.577 -43.2371 216.924 -41.6916 216.269C-29.4058 211.065 -15.4311 205.831 1.0641 205.831C17.5593 205.831 31.534 211.065 43.8198 216.269C45.3653 216.924 46.8827 217.577 48.3743 218.22C52.8221 220.135 57.0412 221.953 61.0982 223.408C66.5114 225.35 71.5872 226.628 76.4543 226.628C81.3214 226.628 86.3973 225.35 91.8104 223.408C95.8674 221.953 100.086 220.136 104.534 218.22C106.026 217.577 107.543 216.924 109.089 216.269C121.375 211.065 135.349 205.831 151.845 205.831C168.34 205.831 182.314 211.065 194.6 216.269C196.146 216.924 197.663 217.577 199.154 218.22C203.602 220.135 207.821 221.953 211.879 223.408C217.292 225.35 222.368 226.628 227.235 226.628C232.102 226.628 237.178 225.35 242.591 223.408C246.648 221.953 250.867 220.135 255.315 218.22C256.806 217.577 258.324 216.924 259.869 216.269C272.155 211.065 286.13 205.831 302.625 205.831C319.12 205.831 333.095 211.065 345.381 216.269C346.926 216.924 348.443 217.577 349.935 218.22C354.383 220.135 358.602 221.953 362.659 223.408C368.072 225.35 373.148 226.628 378.015 226.628C382.882 226.628 387.958 225.35 393.371 223.408C397.428 221.953 401.647 220.136 406.095 218.22C407.587 217.577 409.104 216.924 410.65 216.269C422.935 211.065 436.91 205.831 453.405 205.831V206.831C437.122 206.831 423.304 211.995 411.04 217.19C409.509 217.838 408.001 218.488 406.514 219.128C402.058 221.048 397.798 222.882 393.709 224.349C388.251 226.307 383.05 227.628 378.015 227.628C372.98 227.628 367.779 226.307 362.321 224.349C358.232 222.882 353.972 221.048 349.516 219.128C348.03 218.488 346.521 217.838 344.991 217.19C332.727 211.995 318.908 206.831 302.625 206.831C286.342 206.831 272.523 211.995 260.259 217.19C258.728 217.838 257.22 218.488 255.734 219.128C251.278 221.048 247.018 222.882 242.928 224.349C237.471 226.307 232.269 227.628 227.235 227.628C222.2 227.628 216.999 226.307 211.541 224.349C207.452 222.882 203.192 221.048 198.736 219.128C197.249 218.488 195.741 217.838 194.21 217.19C181.946 211.995 168.128 206.831 151.845 206.831C135.561 206.831 121.743 211.995 109.479 217.19C107.948 217.838 106.44 218.488 104.953 219.128C100.497 221.048 96.2371 222.882 92.148 224.349C86.6905 226.307 81.489 227.628 76.4543 227.628C71.4196 227.628 66.2181 226.307 60.7606 224.349C56.6715 222.882 52.4113 221.048 47.9551 219.128C46.4688 218.488 44.9606 217.838 43.4297 217.19C31.1659 211.995 17.3472 206.831 1.0641 206.831C-15.219 206.831 -29.0377 211.995 -41.3015 217.19C-42.8324 217.838 -44.3405 218.488 -45.8269 219.128C-50.2831 221.048 -54.5433 222.882 -58.6324 224.349C-64.0899 226.307 -69.2914 227.628 -74.3261 227.628C-79.3608 227.628 -84.5623 226.307 -90.0198 224.349C-94.1089 222.882 -98.3691 221.048 -102.825 219.128C-104.312 218.488 -105.82 217.838 -107.351 217.19Z" fill="white" fill-opacity="0.3"/>
<path fill-rule="evenodd" clip-rule="evenodd" d="M-107.351 232.514C-119.615 227.32 -133.433 222.155 -149.716 222.155V221.155C-133.221 221.155 -119.246 226.389 -106.961 231.593C-105.415 232.248 -103.898 232.902 -102.406 233.544C-97.9583 235.46 -93.7393 237.277 -89.6822 238.732C-84.2691 240.674 -79.1932 241.953 -74.3261 241.953C-69.459 241.953 -64.3831 240.674 -58.97 238.732C-54.9129 237.277 -50.6939 235.46 -46.2461 233.544C-44.7545 232.902 -43.2371 232.248 -41.6916 231.593C-29.4058 226.389 -15.4311 221.155 1.0641 221.155C17.5593 221.155 31.534 226.389 43.8198 231.593C45.3653 232.248 46.8827 232.902 48.3743 233.544C52.8221 235.46 57.0412 237.277 61.0982 238.732C66.5114 240.674 71.5872 241.953 76.4543 241.953C81.3214 241.953 86.3973 240.674 91.8104 238.732C95.8674 237.277 100.086 235.46 104.534 233.544C106.026 232.902 107.543 232.248 109.089 231.593C121.375 226.389 135.349 221.155 151.845 221.155C168.34 221.155 182.314 226.389 194.6 231.593C196.146 232.248 197.663 232.902 199.154 233.544C203.602 235.46 207.821 237.277 211.879 238.732C217.292 240.674 222.368 241.953 227.235 241.953C232.102 241.953 237.178 240.674 242.591 238.732C246.648 237.277 250.867 235.46 255.315 233.544C256.806 232.902 258.324 232.248 259.869 231.593C272.155 226.389 286.13 221.155 302.625 221.155C319.12 221.155 333.095 226.389 345.381 231.593C346.926 232.248 348.443 232.902 349.935 233.544C354.383 235.46 358.602 237.277 362.659 238.732C368.072 240.674 373.148 241.953 378.015 241.953C382.882 241.953 387.958 240.674 393.371 238.732C397.428 237.277 401.647 235.46 406.095 233.544C407.587 232.902 409.104 232.248 410.65 231.593C422.935 226.389 436.91 221.155 453.405 221.155V222.155C437.122 222.155 423.304 227.32 411.04 232.514C409.509 233.163 408.001 233.812 406.514 234.452C402.058 236.372 397.798 238.207 393.709 239.674C388.251 241.631 383.05 242.953 378.015 242.953C372.98 242.953 367.779 241.631 362.321 239.674C358.232 238.207 353.972 236.372 349.516 234.453C348.03 233.812 346.521 233.163 344.991 232.514C332.727 227.32 318.908 222.155 302.625 222.155C286.342 222.155 272.523 227.32 260.259 232.514C258.728 233.163 257.22 233.812 255.734 234.452C251.278 236.372 247.018 238.207 242.928 239.674C237.471 241.631 232.269 242.953 227.235 242.953C222.2 242.953 216.999 241.631 211.541 239.674C207.452 238.207 203.192 236.372 198.736 234.452C197.249 233.812 195.741 233.163 194.21 232.514C181.946 227.32 168.128 222.155 151.845 222.155C135.561 222.155 121.743 227.32 109.479 232.514C107.948 233.163 106.44 233.812 104.953 234.452C100.497 236.372 96.2371 238.207 92.148 239.674C86.6905 241.631 81.489 242.953 76.4543 242.953C71.4196 242.953 66.2181 241.631 60.7606 239.674C56.6715 238.207 52.4113 236.372 47.9551 234.452C46.4688 233.812 44.9606 233.163 43.4297 232.514C31.1659 227.32 17.3472 222.155 1.0641 222.155C-15.219 222.155 -29.0377 227.32 -41.3015 232.514C-42.8324 233.163 -44.3405 233.812 -45.8269 234.452C-50.2831 236.372 -54.5433 238.207 -58.6324 239.674C-64.0899 241.631 -69.2914 242.953 -74.3261 242.953C-79.3608 242.953 -84.5623 241.631 -90.0198 239.674C-94.1089 238.207 -98.3691 236.372 -102.825 234.452C-104.312 233.812 -105.82 233.163 -107.351 232.514Z" fill="white" fill-opacity="0.3"/>
</g>
<path fill-rule="evenodd" clip-rule="evenodd" d="M76.5514 38.9475L48.6392 111.738L48.1724 111.559L76.0845 38.7684L76.5514 38.9475Z" fill="white" fill-opacity="0.08"/>
<path fill-rule="evenodd" clip-rule="evenodd" d="M222.083 110.723L157.36 181.479L48.271 111.859L48.54 111.438L157.275 180.832L221.714 110.385L222.083 110.723Z" fill="white" fill-opacity="0.08"/>
<path fill-rule="evenodd" clip-rule="evenodd" d="M221.789 110.778L76.208 39.0822L76.4289 38.6337L222.01 110.33L221.789 110.778Z" fill="white" fill-opacity="0.08"/>
<path fill-rule="evenodd" clip-rule="evenodd" d="M75.7251 38.6853L71.8218 36.1692L72.0926 35.7489L75.996 38.265L78.5121 34.3617L78.9324 34.6326L76.4163 38.5359L80.3196 41.052L80.0488 41.4723L76.1454 38.9562L73.6293 42.8596L73.209 42.5887L75.7251 38.6853Z" fill="white"/>
<path fill-rule="evenodd" clip-rule="evenodd" d="M77.7768 45.3229L78.5078 48.7054L78.0191 48.811L77.2881 45.4285L77.7768 45.3229Z" fill="white" fill-opacity="0.4"/>
<path fill-rule="evenodd" clip-rule="evenodd" d="M74.122 28.4103L74.853 31.7928L74.3643 31.8984L73.6333 28.5159L74.122 28.4103Z" fill="white" fill-opacity="0.4"/>
<path fill-rule="evenodd" clip-rule="evenodd" d="M69.3581 40.317L65.9755 41.0479L65.8699 40.5592L69.2524 39.8282L69.3581 40.317Z" fill="white" fill-opacity="0.4"/>
<path fill-rule="evenodd" clip-rule="evenodd" d="M86.2711 36.6621L82.8886 37.393L82.783 36.9043L86.1655 36.1733L86.2711 36.6621Z" fill="white" fill-opacity="0.4"/>
<g opacity="0.9">
<path fill-rule="evenodd" clip-rule="evenodd" d="M222.119 109.824L226.899 106.294L227.196 106.697L222.416 110.226L225.946 115.006L225.543 115.303L222.014 110.523L217.234 114.053L216.937 113.65L221.717 110.121L218.188 105.341L218.59 105.044L222.119 109.824Z" fill="white"/>
<path fill-rule="evenodd" clip-rule="evenodd" d="M213.37 109.117L209.04 108.466L209.115 107.971L213.444 108.623L213.37 109.117Z" fill="white" fill-opacity="0.4"/>
<path fill-rule="evenodd" clip-rule="evenodd" d="M235.018 112.376L230.688 111.724L230.763 111.23L235.092 111.881L235.018 112.376Z" fill="white" fill-opacity="0.4"/>
<path fill-rule="evenodd" clip-rule="evenodd" d="M223.122 101.477L223.774 97.1475L224.268 97.2219L223.617 101.552L223.122 101.477Z" fill="white" fill-opacity="0.4"/>
<path fill-rule="evenodd" clip-rule="evenodd" d="M219.864 123.125L220.516 118.796L221.011 118.87L220.359 123.2L219.864 123.125Z" fill="white" fill-opacity="0.4"/>
</g>
<g opacity="0.6">
<path fill-rule="evenodd" clip-rule="evenodd" d="M48.4605 111.227L51.4701 110.268L51.6219 110.744L48.6123 111.703L49.571 114.713L49.0945 114.864L48.1359 111.855L45.1263 112.814L44.9745 112.337L47.9841 111.378L47.0254 108.369L47.5018 108.217L48.4605 111.227Z" fill="white"/>
<path fill-rule="evenodd" clip-rule="evenodd" d="M43.9008 109.55L41.7596 108.443L41.9892 107.999L44.1304 109.105L43.9008 109.55Z" fill="white" fill-opacity="0.4"/>
<path fill-rule="evenodd" clip-rule="evenodd" d="M54.6069 115.083L52.4657 113.976L52.6952 113.532L54.8364 114.639L54.6069 115.083Z" fill="white" fill-opacity="0.4"/>
<path fill-rule="evenodd" clip-rule="evenodd" d="M50.2892 107.144L51.3958 105.002L51.84 105.232L50.7334 107.373L50.2892 107.144Z" fill="white" fill-opacity="0.4"/>
<path fill-rule="evenodd" clip-rule="evenodd" d="M44.7565 117.85L45.8631 115.708L46.3073 115.938L45.2007 118.079L44.7565 117.85Z" fill="white" fill-opacity="0.4"/>
</g>
<mask id="mask1" mask-type="alpha" maskUnits="userSpaceOnUse" x="0" y="9" width="202" height="174">
<path d="M151.845 161.453C119.066 161.453 96.258 182.25 76.4544 182.25C71.6894 182.25 66.7505 181.046 61.5405 179.217L0.790527 125.331L30.3446 55.8243L101.493 9.85132L195.081 67.3175L201.101 130.804L178.115 165.716C170.089 163.216 161.389 161.453 151.845 161.453Z" fill="#fff"/>
</mask>
<g mask="url(#mask1)">
<mask id="mask2" mask-type="alpha" maskUnits="userSpaceOnUse" x="71" y="60" width="118" height="118">
<path d="M188.513 118.763C188.513 151.106 162.295 177.324 129.952 177.324C97.6102 177.324 71.3916 151.106 71.3916 118.763C71.3916 86.4212 97.6102 60.2026 129.952 60.2026C162.295 60.2026 188.513 86.4212 188.513 118.763Z" fill="#fff"/>
</mask>
<g mask="url(#mask2)">
<path d="M188.513 118.763C188.513 151.106 162.295 177.324 129.952 177.324C97.6102 177.324 71.3916 151.106 71.3916 118.763C71.3916 86.4212 97.6102 60.2026 129.952 60.2026C162.295 60.2026 188.513 86.4212 188.513 118.763Z" fill="white"/>
<path fill-rule="evenodd" clip-rule="evenodd" d="M129.952 176.324C161.742 176.324 187.513 150.553 187.513 118.763C187.513 86.9735 161.742 61.2026 129.952 61.2026C98.1625 61.2026 72.3916 86.9735 72.3916 118.763C72.3916 150.553 98.1625 176.324 129.952 176.324ZM129.952 177.324C162.295 177.324 188.513 151.106 188.513 118.763C188.513 86.4212 162.295 60.2026 129.952 60.2026C97.6102 60.2026 71.3916 86.4212 71.3916 118.763C71.3916 151.106 97.6102 177.324 129.952 177.324Z" fill="white"/>
<path d="M171.63 99.7708C171.63 132.113 145.412 158.332 113.07 158.332C80.7274 158.332 54.5088 132.113 54.5088 99.7708C54.5088 67.4285 80.7274 41.21 113.07 41.21C145.412 41.21 171.63 67.4285 171.63 99.7708Z" fill="black"/>
<path fill-rule="evenodd" clip-rule="evenodd" d="M113.07 157.332C144.86 157.332 170.63 131.561 170.63 99.7708C170.63 67.9808 144.86 42.21 113.07 42.21C81.2796 42.21 55.5088 67.9808 55.5088 99.7708C55.5088 131.561 81.2796 157.332 113.07 157.332ZM113.07 158.332C145.412 158.332 171.63 132.113 171.63 99.7708C171.63 67.4285 145.412 41.21 113.07 41.21C80.7274 41.21 54.5088 67.4285 54.5088 99.7708C54.5088 132.113 80.7274 158.332 113.07 158.332Z" fill="white"/>
<path fill-rule="evenodd" clip-rule="evenodd" d="M129.952 176.324C161.742 176.324 187.513 150.553 187.513 118.763C187.513 86.9735 161.742 61.2026 129.952 61.2026C98.1625 61.2026 72.3916 86.9735 72.3916 118.763C72.3916 150.553 98.1625 176.324 129.952 176.324ZM129.952 177.324C162.295 177.324 188.513 151.106 188.513 118.763C188.513 86.4212 162.295 60.2026 129.952 60.2026C97.6102 60.2026 71.3916 86.4212 71.3916 118.763C71.3916 151.106 97.6102 177.324 129.952 177.324Z" fill="white" fill-opacity="0.11"/>
</g>
</g>
<defs>
<linearGradient id="paint0_linear" x1="130.5" y1="0" x2="130.5" y2="243" gradientUnits="userSpaceOnUse">
<stop stop-color="#262626" stop-opacity="0"/>
<stop offset="1" stop-color="#262626"/>
</linearGradient>
<radialGradient id="paint1_diamond" cx="0" cy="0" r="1" gradientUnits="userSpaceOnUse" gradientTransform="translate(139.804 167.473) rotate(90) scale(202.5 143.907)">
<stop stop-color="white"/>
<stop offset="0.427083" stop-color="white" stop-opacity="0.2"/>
<stop offset="1" stop-color="white" stop-opacity="0"/>
</radialGradient>
</defs>
</svg>
