<svg width="21" height="23" viewBox="0 0 21 23" fill="none" xmlns="http://www.w3.org/2000/svg">
<path fill-rule="evenodd" clip-rule="evenodd" d="M17 13.5C15.6193 13.5 14.5 14.6193 14.5 16C14.5 17.3807 15.6193 18.5 17 18.5C18.3807 18.5 19.5 17.3807 19.5 16C19.5 14.6193 18.3807 13.5 17 13.5ZM13.5 16C13.5 14.067 15.067 12.5 17 12.5C18.933 12.5 20.5 14.067 20.5 16C20.5 17.933 18.933 19.5 17 19.5C15.067 19.5 13.5 17.933 13.5 16Z" fill="white"/>
<path fill-rule="evenodd" clip-rule="evenodd" d="M4 16.5C2.61929 16.5 1.5 17.6193 1.5 19C1.5 20.3807 2.61929 21.5 4 21.5C5.38071 21.5 6.5 20.3807 6.5 19C6.5 17.6193 5.38071 16.5 4 16.5ZM0.5 19C0.5 17.067 2.067 15.5 4 15.5C5.933 15.5 7.5 17.067 7.5 19C7.5 20.933 5.933 22.5 4 22.5C2.067 22.5 0.5 20.933 0.5 19Z" fill="white"/>
<path fill-rule="evenodd" clip-rule="evenodd" d="M20.3063 0.604805C20.4285 0.699509 20.5 0.84541 20.5 1V15.6512C20.5 15.9273 20.2761 16.1512 20 16.1512C19.7239 16.1512 19.5 15.9273 19.5 15.6512V1.64513L7.5 4.73636V19C7.5 19.2761 7.27614 19.5 7 19.5C6.72386 19.5 6.5 19.2761 6.5 19V4.34884C6.5 4.12074 6.65438 3.92155 6.87527 3.86465L19.8753 0.515812C20.025 0.477247 20.1841 0.510102 20.3063 0.604805Z" fill="white"/>
</svg>
