<svg width="24" height="24" viewBox="0 0 24 24" fill="none" xmlns="http://www.w3.org/2000/svg">
<g opacity="0.18">
<path fill-rule="evenodd" clip-rule="evenodd" d="M20.25 5.5C20.5261 5.5 20.75 5.72386 20.75 6V10.5C20.75 10.7761 20.5261 11 20.25 11C19.9739 11 19.75 10.7761 19.75 10.5V6C19.75 5.72386 19.9739 5.5 20.25 5.5Z" fill="white"/>
<path fill-rule="evenodd" clip-rule="evenodd" d="M17.5 8.25C17.5 7.97386 17.7239 7.75 18 7.75H22.5C22.7761 7.75 23 7.97386 23 8.25C23 8.52614 22.7761 8.75 22.5 8.75H18C17.7239 8.75 17.5 8.52614 17.5 8.25Z" fill="white"/>
<path fill-rule="evenodd" clip-rule="evenodd" d="M15.75 1.75C16.0261 1.75 16.25 1.97386 16.25 2.25V5.25C16.25 5.52614 16.0261 5.75 15.75 5.75C15.4739 5.75 15.25 5.52614 15.25 5.25V2.25C15.25 1.97386 15.4739 1.75 15.75 1.75Z" fill="white"/>
<path fill-rule="evenodd" clip-rule="evenodd" d="M13.75 3.75C13.75 3.47386 13.9739 3.25 14.25 3.25H17.25C17.5261 3.25 17.75 3.47386 17.75 3.75C17.75 4.02614 17.5261 4.25 17.25 4.25H14.25C13.9739 4.25 13.75 4.02614 13.75 3.75Z" fill="white"/>
<path fill-rule="evenodd" clip-rule="evenodd" d="M9.86551 2.74088C9.93919 2.72388 10.0158 2.72382 10.0895 2.74069L10.0896 2.74072C10.2189 2.77032 10.3311 2.85008 10.4016 2.96246C10.4721 3.07484 10.495 3.21061 10.4654 3.3399C10.1432 4.74452 10.183 6.20796 10.5812 7.59295C10.9794 8.97794 11.7229 10.2391 12.7419 11.2581C13.7609 12.2771 15.0221 13.0206 16.4071 13.4188C17.7921 13.817 19.2555 13.8569 20.6601 13.5347C20.7921 13.5044 20.9307 13.5289 21.0442 13.6027C21.1578 13.6764 21.2366 13.793 21.2626 13.9259L21.2626 13.926C21.2761 13.995 21.2749 14.0661 21.2591 14.1345C20.8779 15.7872 20.0612 17.3077 18.8939 18.5381C17.7266 19.7686 16.2511 20.6641 14.6208 21.1317C12.9905 21.5994 11.2647 21.6221 9.62264 21.1975C7.98058 20.7729 6.48211 19.9165 5.28281 18.7172C4.08351 17.5179 3.22711 16.0194 2.80252 14.3774C2.37794 12.7353 2.40065 11.0095 2.8683 9.37919C3.33594 7.74887 4.23148 6.27345 5.46192 5.10612C6.69236 3.93879 8.21285 3.12211 9.86551 2.74088ZM9.34174 3.92442C8.15324 4.31586 7.06258 4.96598 6.15017 5.83159C5.04924 6.87606 4.24796 8.19619 3.82953 9.65492C3.41111 11.1136 3.39079 12.6578 3.77068 14.127C4.15058 15.5963 4.91685 16.937 5.98992 18.0101C7.06299 19.0832 8.40375 19.8494 9.87298 20.2293C11.3422 20.6092 12.8864 20.5889 14.3451 20.1705C15.8038 19.7521 17.124 18.9508 18.1684 17.8499C19.034 16.9375 19.6842 15.8468 20.0756 14.6583C18.7587 14.8426 17.4146 14.749 16.1308 14.3799C14.583 13.9349 13.1736 13.104 12.0348 11.9652C10.896 10.8264 10.0652 9.41705 9.62017 7.86927C9.25106 6.58545 9.15746 5.24132 9.34174 3.92442Z" fill="white"/>
</g>
</svg>
