<svg width="462" height="493" viewBox="0 0 462 493" fill="none" xmlns="http://www.w3.org/2000/svg">
<path fill-rule="evenodd" clip-rule="evenodd" d="M231.004 154.219L150.68 200.594V293.344L231.004 339.72L311.328 293.344V200.594L231.004 154.219ZM312.328 200.017L231.004 153.065L149.68 200.017V293.922L231.004 340.874L312.328 293.922V200.017Z" fill="white"/>
<path fill-rule="evenodd" clip-rule="evenodd" d="M231.004 182.391L175.077 214.68V279.259L231.004 311.548L286.93 279.259V214.68L231.004 182.391ZM287.93 214.103L231.004 181.236L174.077 214.103V279.836L231.004 312.703L287.93 279.836V214.103Z" fill="white"/>
<path fill-rule="evenodd" clip-rule="evenodd" d="M231.004 210.562L199.474 228.766V265.173L231.004 283.377L262.533 265.173V228.766L231.004 210.562ZM263.533 228.189L231.004 209.408L198.474 228.189V265.751L231.004 284.532L263.533 265.751V228.189Z" fill="white"/>
<path fill-rule="evenodd" clip-rule="evenodd" d="M231.504 52.3186L243.327 40.495L244.035 41.2021L231.504 53.7328V111.009L264.456 78.0569L265.163 78.764L231.504 112.423V209.408H230.504V112.423L196.845 78.764L197.552 78.0569L230.504 111.009V53.7328L217.973 41.2021L218.68 40.495L230.504 52.3186V0H231.504V52.3186Z" fill="white"/>
<path fill-rule="evenodd" clip-rule="evenodd" d="M308.262 116.098L317.999 113.489L318.258 114.455L307.554 117.323L289.95 147.814L318.288 140.221L318.547 141.187L289.243 149.039L272.679 177.73L271.812 177.23L288.377 148.539L280.525 119.235L281.491 118.977L289.084 147.314L306.688 116.823L303.82 106.119L304.786 105.86L307.396 115.598L320.878 92.2461L321.744 92.7461L308.262 116.098Z" fill="white"/>
<path fill-rule="evenodd" clip-rule="evenodd" d="M382.928 247.469L390.056 254.598L389.349 255.305L381.514 247.469L346.305 247.469L367.05 268.214L366.343 268.921L344.891 247.469L311.762 247.469L311.762 246.469L344.891 246.469L366.343 225.018L367.05 225.725L346.305 246.469L381.514 246.469L389.349 238.634L390.056 239.341L382.928 246.469L409.892 246.469L409.892 247.469L382.928 247.469Z" fill="white"/>
<path fill-rule="evenodd" clip-rule="evenodd" d="M78.6101 246.469L71.4817 239.341L72.1888 238.634L80.0243 246.469L115.233 246.469L94.4884 225.725L95.1955 225.018L116.647 246.469L149.776 246.469L149.776 247.469L116.647 247.469L95.1955 268.921L94.4884 268.214L115.233 247.469L80.0243 247.469L72.1888 255.305L71.4817 254.598L78.6101 247.469L51.6458 247.469L51.6458 246.469L78.6101 246.469Z" fill="white"/>
<path fill-rule="evenodd" clip-rule="evenodd" d="M154.694 115.598L157.303 105.86L158.269 106.119L155.401 116.823L173.005 147.314L180.598 118.977L181.564 119.235L173.712 148.539L190.277 177.23L189.411 177.73L172.846 149.039L143.543 141.187L143.802 140.221L172.139 147.814L154.535 117.323L143.832 114.455L144.09 113.489L153.828 116.098L140.346 92.7461L141.212 92.2461L154.694 115.598Z" fill="white"/>
<path fill-rule="evenodd" clip-rule="evenodd" d="M308.262 378.31L317.999 380.919L318.258 379.954L307.554 377.086L289.95 346.594L318.288 354.187L318.547 353.221L289.243 345.369L272.679 316.679L271.812 317.179L288.377 345.869L280.525 375.173L281.491 375.432L289.084 347.094L306.688 377.586L303.82 388.289L304.786 388.548L307.396 378.81L320.878 402.162L321.744 401.662L308.262 378.31Z" fill="white"/>
<path fill-rule="evenodd" clip-rule="evenodd" d="M154.694 378.81L157.303 388.548L158.269 388.289L155.401 377.585L173.005 347.094L180.598 375.431L181.564 375.173L173.712 345.869L190.277 317.178L189.411 316.678L172.846 345.369L143.543 353.221L143.802 354.187L172.139 346.594L154.535 377.085L143.832 379.953L144.09 380.919L153.828 378.31L140.346 401.662L141.212 402.162L154.694 378.81Z" fill="white"/>
<path fill-rule="evenodd" clip-rule="evenodd" d="M230.504 440.681L218.68 452.505L217.973 451.798L230.504 439.267L230.504 381.991L197.552 414.943L196.845 414.236L230.504 380.577L230.504 283.592L231.504 283.592L231.504 380.577L265.163 414.236L264.456 414.943L231.504 381.991L231.504 439.267L244.035 451.798L243.327 452.505L231.504 440.681L231.504 493L230.504 493L230.504 440.681Z" fill="white"/>
<path fill-rule="evenodd" clip-rule="evenodd" d="M399.224 150.713L415.376 155.04L415.117 156.006L398 151.42L348.397 180.058L393.411 192.119L393.152 193.085L347.172 180.765L263.181 229.257L262.681 228.391L346.672 179.899L358.992 133.92L359.958 134.178L347.897 179.192L397.5 150.554L402.086 133.437L403.052 133.695L398.724 149.847L444.034 123.687L444.534 124.553L399.224 150.713Z" fill="white"/>
<path fill-rule="evenodd" clip-rule="evenodd" d="M62.8993 150.713L46.748 155.04L47.0068 156.006L64.124 151.42L113.727 180.058L68.7132 192.119L68.9721 193.085L114.951 180.765L198.942 229.257L199.442 228.391L115.451 179.899L103.131 133.92L102.165 134.178L114.227 179.192L64.624 150.554L60.0375 133.437L59.0716 133.695L63.3993 149.847L18.09 123.687L17.59 124.553L62.8993 150.713Z" fill="white"/>
<path fill-rule="evenodd" clip-rule="evenodd" d="M63.3993 344.894L59.0715 361.045L60.0374 361.304L64.624 344.187L114.227 315.549L102.165 360.562L103.131 360.821L115.451 314.842L199.442 266.35L198.942 265.484L114.951 313.976L68.972 301.656L68.7132 302.622L113.727 314.683L64.124 343.321L47.0068 338.734L46.7479 339.7L62.8993 344.028L17.59 370.187L18.09 371.053L63.3993 344.894Z" fill="white"/>
<path fill-rule="evenodd" clip-rule="evenodd" d="M398.725 343.955L403.052 360.106L402.086 360.365L397.5 343.248L347.897 314.61L359.958 359.623L358.992 359.882L346.672 313.903L262.681 265.411L263.181 264.545L347.172 313.037L393.152 300.717L393.411 301.683L348.397 313.744L398 342.382L415.117 337.795L415.376 338.761L399.225 343.089L444.534 369.248L444.034 370.114L398.725 343.955Z" fill="white"/>
</svg>
