<svg width="300" height="251" viewBox="0 0 300 251" fill="none" xmlns="http://www.w3.org/2000/svg">
<path fill-rule="evenodd" clip-rule="evenodd" d="M120.495 36.2359L99.8677 95.4002L99.3956 95.2356L120.023 36.0713L120.495 36.2359Z" fill="white" fill-opacity="0.08"/>
<path fill-rule="evenodd" clip-rule="evenodd" d="M239.168 90.3209L188.892 148.791L99.5035 95.5327L99.7594 95.1031L188.787 148.146L238.789 89.9949L239.168 90.3209Z" fill="white" fill-opacity="0.08"/>
<path fill-rule="evenodd" clip-rule="evenodd" d="M238.875 90.3854L120.155 36.3812L120.362 35.9261L239.083 89.9303L238.875 90.3854Z" fill="white" fill-opacity="0.08"/>
<path fill-rule="evenodd" clip-rule="evenodd" d="M119.711 36.0463L116.555 34.1466L116.813 33.7182L119.969 35.6179L121.868 32.4621L122.297 32.72L120.397 35.8758L123.553 37.7754L123.295 38.2038L120.139 36.3041L118.239 39.4599L117.811 39.202L119.711 36.0463Z" fill="white"/>
<path fill-rule="evenodd" clip-rule="evenodd" d="M121.638 41.2994L122.308 43.9986L121.823 44.1192L121.152 41.4199L121.638 41.2994Z" fill="white" fill-opacity="0.4"/>
<path fill-rule="evenodd" clip-rule="evenodd" d="M118.284 27.8029L118.955 30.5022L118.47 30.6227L117.799 27.9235L118.284 27.8029Z" fill="white" fill-opacity="0.4"/>
<path fill-rule="evenodd" clip-rule="evenodd" d="M114.715 37.5449L112.016 38.2156L111.895 37.7304L114.595 37.0597L114.715 37.5449Z" fill="white" fill-opacity="0.4"/>
<path fill-rule="evenodd" clip-rule="evenodd" d="M128.212 34.1915L125.513 34.8622L125.392 34.377L128.091 33.7063L128.212 34.1915Z" fill="white" fill-opacity="0.4"/>
<path fill-rule="evenodd" clip-rule="evenodd" d="M282.497 10.3033L279.341 8.40367L279.599 7.97529L282.755 9.87496L284.654 6.71919L285.083 6.97705L283.183 10.1328L286.339 12.0325L286.081 12.4609L282.925 10.5612L281.026 13.717L280.597 13.4591L282.497 10.3033Z" fill="white"/>
<path fill-rule="evenodd" clip-rule="evenodd" d="M284.424 15.5564L285.094 18.2557L284.609 18.3763L283.938 15.677L284.424 15.5564Z" fill="white" fill-opacity="0.4"/>
<path fill-rule="evenodd" clip-rule="evenodd" d="M281.07 2.05998L281.741 4.75926L281.256 4.87983L280.585 2.18054L281.07 2.05998Z" fill="white" fill-opacity="0.4"/>
<path fill-rule="evenodd" clip-rule="evenodd" d="M277.501 11.802L274.802 12.4727L274.682 11.9875L277.381 11.3168L277.501 11.802Z" fill="white" fill-opacity="0.4"/>
<path fill-rule="evenodd" clip-rule="evenodd" d="M290.998 8.44862L288.299 9.1193L288.178 8.63406L290.877 7.96338L290.998 8.44862Z" fill="white" fill-opacity="0.4"/>
<g opacity="0.9">
<path fill-rule="evenodd" clip-rule="evenodd" d="M239.145 89.4969L242.859 86.574L243.169 86.9669L239.454 89.8899L242.377 93.6043L241.984 93.9135L239.061 90.1991L235.347 93.122L235.038 92.7291L238.752 89.8061L235.829 86.0917L236.222 85.7825L239.145 89.4969Z" fill="white"/>
<path fill-rule="evenodd" clip-rule="evenodd" d="M232.085 89.263L228.591 88.8463L228.65 88.3498L232.145 88.7665L232.085 89.263Z" fill="white" fill-opacity="0.4"/>
<path fill-rule="evenodd" clip-rule="evenodd" d="M249.556 91.3462L246.062 90.9295L246.121 90.4331L249.615 90.8497L249.556 91.3462Z" fill="white" fill-opacity="0.4"/>
<path fill-rule="evenodd" clip-rule="evenodd" d="M239.688 82.83L240.105 79.3357L240.601 79.3949L240.185 82.8892L239.688 82.83Z" fill="white" fill-opacity="0.4"/>
<path fill-rule="evenodd" clip-rule="evenodd" d="M237.605 100.301L238.022 96.8069L238.518 96.8661L238.102 100.36L237.605 100.301Z" fill="white" fill-opacity="0.4"/>
</g>
<g opacity="0.6">
<path fill-rule="evenodd" clip-rule="evenodd" d="M99.6951 94.915L102.043 94.0869L102.209 94.5584L99.8614 95.3865L100.69 97.7343L100.218 97.9006L99.3899 95.5528L97.0421 96.3809L96.8758 95.9094L99.2236 95.0813L98.3955 92.7335L98.867 92.5672L99.6951 94.915Z" fill="white"/>
<path fill-rule="evenodd" clip-rule="evenodd" d="M95.9395 93.787L94.192 92.9508L94.4079 92.4998L96.1553 93.3359L95.9395 93.787Z" fill="white" fill-opacity="0.4"/>
<path fill-rule="evenodd" clip-rule="evenodd" d="M104.677 97.9679L102.929 97.1317L103.145 96.6807L104.893 97.5168L104.677 97.9679Z" fill="white" fill-opacity="0.4"/>
<path fill-rule="evenodd" clip-rule="evenodd" d="M100.989 91.6312L101.825 89.8838L102.276 90.0996L101.44 91.847L100.989 91.6312Z" fill="white" fill-opacity="0.4"/>
<path fill-rule="evenodd" clip-rule="evenodd" d="M96.8083 100.368L97.6444 98.6208L98.0954 98.8366L97.2593 100.584L96.8083 100.368Z" fill="white" fill-opacity="0.4"/>
</g>
<path fill-rule="evenodd" clip-rule="evenodd" d="M135.896 236.998L132.74 235.099L132.998 234.67L136.154 236.57L138.053 233.414L138.482 233.672L136.582 236.828L139.738 238.727L139.48 239.156L136.324 237.256L134.425 240.412L133.996 240.154L135.896 236.998Z" fill="white"/>
<path fill-rule="evenodd" clip-rule="evenodd" d="M137.823 242.251L138.493 244.951L138.008 245.071L137.337 242.372L137.823 242.251Z" fill="white" fill-opacity="0.4"/>
<path fill-rule="evenodd" clip-rule="evenodd" d="M134.469 228.755L135.14 231.454L134.655 231.575L133.984 228.875L134.469 228.755Z" fill="white" fill-opacity="0.4"/>
<path fill-rule="evenodd" clip-rule="evenodd" d="M130.9 238.497L128.201 239.168L128.081 238.682L130.78 238.012L130.9 238.497Z" fill="white" fill-opacity="0.4"/>
<path fill-rule="evenodd" clip-rule="evenodd" d="M144.397 235.144L141.698 235.814L141.577 235.329L144.276 234.658L144.397 235.144Z" fill="white" fill-opacity="0.4"/>
<path fill-rule="evenodd" clip-rule="evenodd" d="M104.131 189.849L100.975 187.95L101.233 187.521L104.389 189.421L106.289 186.265L106.717 186.523L104.817 189.679L107.973 191.579L107.715 192.007L104.56 190.107L102.66 193.263L102.231 193.005L104.131 189.849Z" fill="white"/>
<path fill-rule="evenodd" clip-rule="evenodd" d="M106.058 195.102L106.729 197.802L106.243 197.922L105.573 195.223L106.058 195.102Z" fill="white" fill-opacity="0.4"/>
<path fill-rule="evenodd" clip-rule="evenodd" d="M102.704 181.606L103.375 184.305L102.89 184.426L102.219 181.727L102.704 181.606Z" fill="white" fill-opacity="0.4"/>
<path fill-rule="evenodd" clip-rule="evenodd" d="M99.1357 191.348L96.4364 192.019L96.3159 191.533L99.0151 190.863L99.1357 191.348Z" fill="white" fill-opacity="0.4"/>
<path fill-rule="evenodd" clip-rule="evenodd" d="M112.632 187.995L109.933 188.665L109.812 188.18L112.512 187.509L112.632 187.995Z" fill="white" fill-opacity="0.4"/>
<g opacity="0.6">
<path fill-rule="evenodd" clip-rule="evenodd" d="M8.44803 23.6479L10.7958 22.8198L10.9621 23.2913L8.61434 24.1194L9.44244 26.4672L8.97091 26.6335L8.14282 24.2857L5.79502 25.1138L5.62871 24.6423L7.9765 23.8142L7.14841 21.4664L7.61994 21.3001L8.44803 23.6479Z" fill="white"/>
<path fill-rule="evenodd" clip-rule="evenodd" d="M4.69238 22.5199L2.94498 21.6837L3.1608 21.2327L4.9082 22.0688L4.69238 22.5199Z" fill="white" fill-opacity="0.4"/>
<path fill-rule="evenodd" clip-rule="evenodd" d="M13.4297 26.7008L11.6823 25.8646L11.8981 25.4136L13.6455 26.2498L13.4297 26.7008Z" fill="white" fill-opacity="0.4"/>
<path fill-rule="evenodd" clip-rule="evenodd" d="M9.74185 20.3641L10.578 18.6167L11.029 18.8326L10.1929 20.58L9.74185 20.3641Z" fill="white" fill-opacity="0.4"/>
<path fill-rule="evenodd" clip-rule="evenodd" d="M5.56118 29.1011L6.39734 27.3537L6.84836 27.5695L6.01221 29.3169L5.56118 29.1011Z" fill="white" fill-opacity="0.4"/>
</g>
<g opacity="0.6">
<path fill-rule="evenodd" clip-rule="evenodd" d="M189.279 148.645L191.627 147.817L191.793 148.289L189.445 149.117L190.273 151.465L189.802 151.631L188.974 149.283L186.626 150.111L186.46 149.64L188.808 148.812L187.979 146.464L188.451 146.298L189.279 148.645Z" fill="white"/>
<path fill-rule="evenodd" clip-rule="evenodd" d="M185.523 147.517L183.776 146.681L183.992 146.23L185.739 147.066L185.523 147.517Z" fill="white" fill-opacity="0.4"/>
<path fill-rule="evenodd" clip-rule="evenodd" d="M194.261 151.698L192.513 150.862L192.729 150.411L194.477 151.247L194.261 151.698Z" fill="white" fill-opacity="0.4"/>
<path fill-rule="evenodd" clip-rule="evenodd" d="M190.573 145.362L191.409 143.614L191.86 143.83L191.024 145.577L190.573 145.362Z" fill="white" fill-opacity="0.4"/>
<path fill-rule="evenodd" clip-rule="evenodd" d="M186.392 154.099L187.228 152.351L187.679 152.567L186.843 154.314L186.392 154.099Z" fill="white" fill-opacity="0.4"/>
</g>
</svg>
