<svg width="30" height="24" viewBox="0 0 30 24" fill="none" xmlns="http://www.w3.org/2000/svg">
<path fill-rule="evenodd" clip-rule="evenodd" d="M20.5 3C20.5 2.17157 19.8284 1.5 19 1.5H11C10.1716 1.5 9.5 2.17157 9.5 3V21C9.5 21.8284 10.1716 22.5 11 22.5H19C19.8284 22.5 20.5 21.8284 20.5 21V3ZM19 0.5C20.3807 0.5 21.5 1.61929 21.5 3V21C21.5 22.3807 20.3807 23.5 19 23.5H11C9.61929 23.5 8.5 22.3807 8.5 21V3C8.5 1.61929 9.61929 0.5 11 0.5H19Z" fill="#1C1C1C"/>
<path fill-rule="evenodd" clip-rule="evenodd" d="M25.0002 6.5C25.2763 6.5 25.5002 6.72386 25.5002 7V17C25.5002 17.2761 25.2763 17.5 25.0002 17.5C24.7241 17.5 24.5002 17.2761 24.5002 17V7C24.5002 6.72386 24.7241 6.5 25.0002 6.5Z" fill="#1C1C1C"/>
<path fill-rule="evenodd" clip-rule="evenodd" d="M29.0002 8.5C29.2763 8.5 29.5002 8.72386 29.5002 9V15C29.5002 15.2761 29.2763 15.5 29.0002 15.5C28.7241 15.5 28.5002 15.2761 28.5002 15V9C28.5002 8.72386 28.7241 8.5 29.0002 8.5Z" fill="#1C1C1C"/>
<path fill-rule="evenodd" clip-rule="evenodd" d="M5 6.5C5.27614 6.5 5.5 6.72386 5.5 7V17C5.5 17.2761 5.27614 17.5 5 17.5C4.72386 17.5 4.5 17.2761 4.5 17V7C4.5 6.72386 4.72386 6.5 5 6.5Z" fill="#1C1C1C"/>
<path fill-rule="evenodd" clip-rule="evenodd" d="M1 8.5C1.27614 8.5 1.5 8.72386 1.5 9V15C1.5 15.2761 1.27614 15.5 1 15.5C0.723858 15.5 0.5 15.2761 0.5 15V9C0.5 8.72386 0.723858 8.5 1 8.5Z" fill="#1C1C1C"/>
</svg>
